<svg width="168" height="22" viewBox="0 0 168 22" fill="none" xmlns="http://www.w3.org/2000/svg">
<path d="M0 21.6354H10.8687C16.0256 21.6354 19.42 19.6906 19.42 15.8011V15.7403C19.42 12.884 17.7881 11.4558 15.1444 10.5138C16.7763 9.66298 18.1471 8.32597 18.1471 5.92541V5.86464C18.1471 4.40608 17.6249 3.22099 16.5805 2.24862C15.2749 1.03315 13.2187 0.36464 10.6076 0.36464H0V21.6354ZM4.89581 8.96409V4.46685H9.8569C11.9784 4.46685 13.1534 5.25691 13.1534 6.6547V6.71547C13.1534 8.29558 11.7499 8.96409 9.53051 8.96409H4.89581ZM4.89581 17.5331V12.8536H10.7055C13.284 12.8536 14.4263 13.7348 14.4263 15.163V15.2238C14.4263 16.8039 13.0881 17.5331 10.8687 17.5331H4.89581Z" fill="white"/>
<path d="M23.5547 21.6354H28.5811V14.8287H32.5304L37.4262 21.6354H43.3012L37.7199 14.0387C40.6248 13.0359 42.6157 10.8785 42.6157 7.44475V7.38398C42.6157 5.37845 41.9303 3.70718 40.6574 2.5221C39.156 1.12431 36.904 0.36464 33.9991 0.36464H23.5547V21.6354ZM28.5811 10.6961V4.5884H33.5748C36.0227 4.5884 37.5241 5.62155 37.5241 7.62707V7.68785C37.5241 9.48066 36.1206 10.6961 33.6727 10.6961H28.5811Z" fill="white"/>
<path d="M58.2385 22C65.2884 22 70.4127 17.047 70.4127 11V10.9392C70.4127 4.89227 65.3537 0 58.3038 0C51.2538 0 46.1295 4.95304 46.1295 11V11.0608C46.1295 17.1077 51.1885 22 58.2385 22ZM58.3038 17.6851C54.2565 17.6851 51.3843 14.6464 51.3843 11V10.9392C51.3843 7.29282 54.1913 4.31492 58.2385 4.31492C62.2857 4.31492 65.1579 7.35359 65.1579 11V11.0608C65.1579 14.7072 62.351 17.6851 58.3038 17.6851Z" fill="white"/>
<path d="M74.8715 21.6354H83.7819C90.9624 21.6354 95.9235 16.9862 95.9235 11V10.9392C95.9235 4.95304 90.9624 0.36464 83.7819 0.36464H74.8715V21.6354ZM79.8978 17.4116V4.5884H83.7819C87.8943 4.5884 90.6686 7.23204 90.6686 11V11.0608C90.6686 14.8287 87.8943 17.4116 83.7819 17.4116H79.8978Z" fill="white"/>
<path d="M109.933 21.9696C116.069 21.9696 119.953 18.8094 119.953 12.3674V0.36464H114.927V12.5497C114.927 15.9227 113.066 17.6547 109.998 17.6547C106.93 17.6547 105.07 15.8619 105.07 12.3978V0.36464H100.043V12.5193C100.043 18.779 103.797 21.9696 109.933 21.9696Z" fill="white"/>
<path d="M125.073 21.6354H133.983C141.164 21.6354 146.125 16.9862 146.125 11V10.9392C146.125 4.95304 141.164 0.36464 133.983 0.36464H125.073V21.6354ZM130.099 17.4116V4.5884H133.983C138.096 4.5884 140.87 7.23204 140.87 11V11.0608C140.87 14.8287 138.096 17.4116 133.983 17.4116H130.099Z" fill="white"/>
<path d="M150.604 21.6354H168V17.4724H155.597V13.0055H166.368V8.84254H155.597V4.52762H167.837V0.36464H150.604V21.6354Z" fill="white"/>
</svg>
