<svg width="48" height="49" viewBox="0 0 48 49" fill="none" xmlns="http://www.w3.org/2000/svg">
<rect x="0.5" y="0.563477" width="47" height="46.9742" rx="23.4871" stroke="white"/>
<path d="M31.14 19.2233C31.046 19.1164 30.912 19.0554 30.77 19.0534H27V17.6441C27 17.3643 27.06 17.0445 27.51 17.0445H30.51C30.643 17.0505 30.772 16.9955 30.86 16.8945C30.948 16.8036 30.998 16.6817 31 16.5547V12.5569C31 12.281 30.776 12.0571 30.5 12.0571H26.17C21.37 12.0571 21 16.1549 21 17.4043V19.0534H18.5C18.224 19.0534 18 19.2773 18 19.5531V23.551C18 23.8268 18.224 24.0507 18.5 24.0507H21V35.5446C21 35.8204 21.224 36.0443 21.5 36.0443H26.5C26.776 36.0443 27 35.8204 27 35.5446V24.0507H30.35C30.608 24.0517 30.824 23.8568 30.85 23.601L31.27 19.6031C31.282 19.4642 31.235 19.3262 31.14 19.2233Z" fill="white"/>
</svg>
