<svg width="51" height="85" viewBox="0 0 51 85" fill="none" xmlns="http://www.w3.org/2000/svg">
<path d="M43.9868 4.17123L44.4662 4.02919L44.3818 3.74454L44.0915 3.68233L43.9868 4.17123ZM33.8544 2L38.1385 5.87032L39.3482 0.224973L33.8544 2ZM44.0915 3.68233L38.3592 2.45398L38.1497 3.43178L43.882 4.66013L44.0915 3.68233ZM50.2561 23.5703L44.4662 4.02919L43.5074 4.31328L49.2973 23.8544L50.2561 23.5703Z" fill="#7F5CFF"/>
<path d="M48.2593 60.8189L34.255 8.5542L6.09287 16.1002L1.38618 22.9063L2.95635 28.7663C3.10621 28.7015 3.26363 28.6471 3.42863 28.6029C3.54263 28.5723 3.65684 28.5485 3.77275 28.5311L2.2838 22.9743L6.6182 16.7048L33.6223 9.46905L47.3632 60.7505L43.1285 66.8704L15.9939 74.1411L5.04363 33.2741C4.9342 33.3157 4.82525 33.3531 4.70975 33.3841C4.54625 33.4279 4.38119 33.4598 4.21905 33.4787L15.3601 75.0576L43.6527 67.4766L48.2593 60.8189Z" fill="#7F5CFF"/>
<path d="M8.52335 80.8881L8.04395 81.0301L8.12829 81.3148L8.41858 81.377L8.52335 80.8881ZM18.6558 83.0593L14.3716 79.189L13.1619 84.8344L18.6558 83.0593ZM8.41858 81.377L14.1509 82.6053L14.3604 81.6275L8.62811 80.3992L8.41858 81.377ZM2.254 61.4891L8.04395 81.0301L9.00275 80.746L3.2128 61.205L2.254 61.4891Z" fill="#7F5CFF"/>
</svg>
