<svg width="535" height="135" viewBox="0 0 535 135" fill="none" xmlns="http://www.w3.org/2000/svg">
<path d="M26.9228 135L535 135L535 32.9058L507.474 1.28524e-05L216.296 -1.26032e-05C216.418 0.842486 216.479 1.70928 216.479 2.60037C216.479 3.21604 216.445 3.82363 216.377 4.43119L505.943 4.43121L531.3 34.7366L531.3 130.577L28.4542 130.577L3.70673 100.976L3.70674 4.43117L221.142 4.43119C221.081 3.82363 221.04 3.22414 221.04 2.60038C221.04 1.71738 221.101 0.842487 221.223 -1.21725e-05L1.18021e-05 -3.15124e-05L2.8151e-06 102.799L26.9228 135Z" fill="#EB3DF3"/>
<path d="M34.7445 122L523 122L523 39.5684L500.768 13L187.694 13C187.793 13.6802 187.842 14.3801 187.842 15.0995C187.842 15.5966 187.814 16.0872 187.76 16.5778L191.608 16.5778C191.559 16.0872 191.526 15.6032 191.526 15.0995C191.526 14.3866 191.575 13.6802 191.674 13L13 13L13 96.0006L34.7445 122Z" fill="url(#paint0_linear)"/>
<defs>
<linearGradient id="paint0_linear" x1="475.11" y1="118.086" x2="438.102" y2="-34.0572" gradientUnits="userSpaceOnUse">
<stop stop-color="#3C4BB4"/>
<stop offset="1" stop-color="#8E3EF3"/>
</linearGradient>
</defs>
</svg>
