<svg width="48" height="49" viewBox="0 0 48 49" fill="none" xmlns="http://www.w3.org/2000/svg">
<rect x="0.5" y="0.563477" width="47" height="46.9742" rx="23.4871" stroke="white"/>
<path d="M35.93 18.9336C36.142 18.7567 36.171 18.4419 35.995 18.23C35.927 18.148 35.834 18.09 35.73 18.0641L34.94 17.8642C34.672 17.7972 34.509 17.5253 34.576 17.2585C34.584 17.2255 34.596 17.1945 34.61 17.1645L35.05 16.275C35.17 16.0261 35.065 15.7273 34.817 15.6074C34.709 15.5554 34.586 15.5444 34.47 15.5754L32.47 16.1351C32.319 16.1791 32.156 16.1491 32.03 16.0551C31.165 15.4065 30.112 15.0557 29.03 15.0557C26.269 15.0557 24.03 17.2935 24.03 20.053V20.4128C24.031 20.5397 23.936 20.6477 23.81 20.6627C20.9999 20.9925 18.3099 19.5633 15.4099 16.225C15.2819 16.0831 15.0849 16.0251 14.8999 16.0751C14.7339 16.1511 14.6229 16.312 14.6099 16.4949C14.2089 18.139 14.3709 19.8701 15.0699 21.4123C15.1319 21.5352 15.0829 21.6861 14.9599 21.7481C14.9129 21.7711 14.8609 21.7801 14.8099 21.7721L13.6899 21.5522C13.4169 21.5082 13.1609 21.6941 13.1169 21.966C13.1079 22.0249 13.1089 22.0839 13.1199 22.1419C13.2949 23.6961 14.1669 25.0853 15.4899 25.9199C15.6139 25.9798 15.6659 26.1298 15.6059 26.2537C15.5809 26.3047 15.5409 26.3456 15.4899 26.3696L14.9599 26.5795C14.7039 26.6825 14.5789 26.9733 14.6819 27.2292C14.6869 27.2432 14.6929 27.2562 14.6999 27.2692C15.2949 28.5705 16.4909 29.497 17.8999 29.7478C18.0299 29.7948 18.0969 29.9387 18.0499 30.0677C18.0249 30.1376 17.9699 30.1916 17.8999 30.2176C16.5399 30.7793 15.0809 31.0621 13.6099 31.0471C13.3339 30.9922 13.0649 31.1711 13.0099 31.4469C12.9549 31.7228 13.1339 31.9916 13.4099 32.0466C15.9579 33.254 18.7309 33.9116 21.5499 33.9756C24.029 34.0136 26.465 33.3179 28.55 31.9766C32.034 29.6519 34.121 25.739 34.11 21.5522V20.6827C34.111 20.5357 34.177 20.3968 34.29 20.3029L35.93 18.9336Z" fill="white"/>
</svg>
