<svg width="48" height="49" viewBox="0 0 48 49" fill="none" xmlns="http://www.w3.org/2000/svg">
<rect x="0.5" y="0.563477" width="47" height="46.9742" rx="23.4871" stroke="white"/>
<path d="M35.4302 19.0166C35.602 18.431 35.4302 18 34.6041 18H31.8706C31.1744 18 30.8542 18.3701 30.6825 18.7824C30.6825 18.7824 29.2902 22.2071 27.3224 24.4278C26.6866 25.0696 26.3942 25.2758 26.0461 25.2758C25.8744 25.2758 25.6099 25.0696 25.6099 24.484V19.0166C25.6099 18.3139 25.415 18 24.8395 18H20.5419C20.1056 18 19.8457 18.3279 19.8457 18.6325C19.8457 19.2977 20.8296 19.4523 20.9317 21.3263V25.3929C20.9317 26.283 20.7739 26.447 20.4259 26.447C19.4977 26.447 17.2421 23.0082 15.9055 19.0729C15.6364 18.3092 15.3718 18 14.671 18H11.9375C11.1578 18 11 18.3701 11 18.7824C11 19.5132 11.9282 23.1441 15.3208 27.9415C17.5809 31.2163 20.7647 32.9919 23.6607 32.9919C25.401 32.9919 25.6145 32.5984 25.6145 31.9191C25.6145 28.7895 25.4567 28.4944 26.3292 28.4944C26.733 28.4944 27.4291 28.7005 29.0535 30.2793C30.9099 32.1533 31.2162 32.9919 32.2558 32.9919H34.9893C35.769 32.9919 36.1635 32.5984 35.9361 31.8207C35.4163 30.1856 31.9031 26.8218 31.7453 26.5969C31.3415 26.0722 31.4575 25.838 31.7453 25.3695C31.7499 25.3648 35.0868 20.6236 35.4302 19.0166Z" fill="white"/>
</svg>
