<svg width="196" height="48" viewBox="0 0 196 48" fill="none" xmlns="http://www.w3.org/2000/svg">
<path d="M16.0993 7.74633H0.93335V4.49787H16.0993V7.74633Z" fill="black"/>
<path d="M19.8005 4.24799H23.7726L37.4942 40.1628H33.5221L19.8005 4.24799Z" fill="black"/>
<path d="M58.6182 40.7534H37.9455V37.3232H58.6182V40.7534Z" fill="black"/>
<path d="M61.71 23.8978C61.71 20.4752 62.1614 17.1888 63.0641 14.0388C63.9819 10.8888 65.3436 8.0265 67.149 5.45196C68.9545 2.87743 70.8277 1.0601 72.7686 0L73.6262 2.77142C71.4295 4.46758 69.624 7.05726 68.2097 10.5405C66.8105 14.0237 66.0432 17.9233 65.9078 22.2395L65.8852 24.1704C65.8852 30.0161 66.9459 35.0894 69.0673 39.3904C70.3462 41.965 71.8658 43.9792 73.6262 45.433L72.7686 48C70.7675 46.8793 68.8567 45.0014 67.0362 42.3663C63.4854 37.2172 61.71 31.0611 61.71 23.8978Z" fill="black"/>
<path d="M95.5827 2.33762L92.0237 3.54723C93.1792 5.96645 95.8138 13.1776 96.5533 15.8294L100.158 14.5733C99.3727 11.968 96.5995 4.57074 95.5827 2.33762ZM116.104 5.31512L111.852 4.10551C110.928 11.084 108.108 18.5278 104.457 23.2266C99.7887 29.1816 92.9019 33.6479 86.2924 35.6019L89.4816 38.8585C95.9986 36.5323 102.839 31.7404 107.6 25.4132C111.39 20.3887 113.886 13.7359 115.272 7.96695C115.457 7.22258 115.781 6.10602 116.104 5.31512ZM82.6873 5.12902L79.0359 6.4782C80.1452 8.47871 83.3344 16.3412 84.2125 19.2256L87.8639 17.8764C86.8009 14.8524 83.889 7.73434 82.6873 5.12902Z" fill="black"/>
<path d="M133.523 24.1249C133.523 27.5021 133.079 30.743 132.191 33.8476C131.318 36.9371 129.972 39.7918 128.151 42.4117C126.346 45.0317 124.45 46.8945 122.464 48L121.584 45.433C123.901 43.646 125.759 40.8746 127.158 37.1188C128.573 33.3478 129.295 29.168 129.325 24.5793V23.8523C129.325 20.672 128.994 17.7189 128.332 14.9929C127.67 12.2518 126.745 9.79839 125.556 7.63275C124.382 5.46711 123.058 3.77851 121.584 2.56697L122.464 0C124.45 1.10554 126.338 2.95315 128.129 5.54283C129.934 8.13251 131.281 10.9872 132.169 14.107C133.071 17.2267 133.523 20.566 133.523 24.1249Z" fill="black"/>
<path d="M157.558 40.7534H136.885V37.3232H157.558V40.7534Z" fill="black"/>
<path d="M161.643 40.1628H158.055L171.776 4.24799H175.342L161.643 40.1628Z" fill="black"/>
<path d="M195.067 7.74633H179.901V4.49787H195.067V7.74633Z" fill="black"/>
</svg>
