<svg width="121" height="117" viewBox="0 0 121 117" fill="none" xmlns="http://www.w3.org/2000/svg">
<path d="M119.406 58.0755C119.406 89.2651 93.0689 114.651 60.4528 114.651C27.8368 114.651 1.5 89.2651 1.5 58.0755C1.5 26.8859 27.8368 1.5 60.4528 1.5C93.0689 1.5 119.406 26.8859 119.406 58.0755Z" fill="#2D4558" stroke="#8DA3DE" stroke-width="3"/>
<mask id="mask0" mask-type="alpha" maskUnits="userSpaceOnUse" x="0" y="0" width="121" height="117">
<ellipse cx="60.4528" cy="58.0755" rx="60.4528" ry="58.0755" fill="white"/>
</mask>
<g mask="url(#mask0)">
<ellipse cx="61.8749" cy="52.8303" rx="29.7262" ry="32.1043" fill="#6C6C8C"/>
<path d="M86.1968 75.8489C86.403 75.6427 106.078 70.4588 106.078 70.4588C106.078 70.4588 84.2823 66.0996 83.5165 64.4501C82.7507 62.8007 88.7593 48.0147 94.3262 50.047C99.8636 52.0499 127.227 65.6283 128.699 68.397C130.143 71.1952 130.879 74.9947 121.365 81.5041C111.851 88.0135 95.74 94.8175 94.6207 94.464C93.4426 94.1105 82.6918 79.0594 86.1968 75.8489Z" fill="#DF6746"/>
<path d="M96.5647 49.046C96.5647 49.046 94.4146 49.4289 92.824 51.5496C91.2335 53.6703 89.967 60.7688 90.9979 62.3299C92.0288 63.8909 100.364 60.6804 101.454 58.5892C102.573 56.5274 99.3629 48.1918 96.5647 49.046Z" fill="#6C6C8C"/>
<path d="M92.6178 63.9499C92.6178 63.9499 86.3146 66.1295 80.4238 69.1339C74.5918 72.1382 71.5581 73.1691 72.9129 71.4608C74.2973 69.7819 79.5991 64.7157 79.5991 64.7157C79.5991 64.7157 63.576 56.2329 63.8705 54.7602C64.165 53.2875 77.5962 57.4111 77.5962 57.4111C77.5962 57.4111 62.8396 48.4864 63.1636 47.2788C63.4581 46.1007 79.8936 51.4613 79.8936 51.4613C79.8936 51.4613 68.7599 44.569 69.2901 43.3909C69.8203 42.2127 83.3397 47.4261 83.3397 47.4261C83.3397 47.4261 74.798 40.7694 75.1809 39.8564C75.5344 38.9138 83.9288 39.768 95.1509 50.3421C100.07 55.3198 92.6178 63.9499 92.6178 63.9499Z" fill="#D8A38F"/>
<path d="M85.3133 63.5965C85.3133 63.5965 87.2572 60.9456 89.967 60.062C89.967 60.062 86.8743 59.5024 85.3133 63.5965Z" fill="black"/>
<path d="M58.2443 98.0878L58.156 98.3529L58.0676 98.0878C58.0676 98.0878 37.5674 97.322 28.9079 108.338C28.9079 108.338 32.3246 125.893 54.9454 142.682C54.9454 142.682 55.9469 142.623 56.0647 141.857C56.0647 141.857 50.6451 131.077 52.5596 119.148C53.5316 113.168 56.1825 111.46 58.5978 111.283C61.013 111.283 63.7817 112.815 65.1661 118.735C67.9348 130.517 63.2515 141.621 63.2515 141.621C63.4283 142.387 64.4297 142.387 64.4297 142.387C85.8429 124.096 88.0226 106.364 88.0226 106.364C78.6561 95.9376 58.2443 98.0878 58.2443 98.0878Z" fill="#3C3346"/>
<path d="M88.0528 106.276C78.6274 95.9082 58.2451 98.0878 58.2451 98.0878L58.1567 98.3529L58.0683 98.0878C58.0683 98.0878 37.5682 97.322 28.9086 108.338C28.9086 108.338 32.3253 125.893 54.9462 142.682C54.9462 142.682 55.2407 142.682 55.5353 142.505C44.9612 136.349 36.1249 119.442 36.1249 119.442C38.2162 118.647 41.6623 115.319 41.6623 115.319C45.4325 112.609 51.5884 111.519 57.6854 111.372C58.0094 111.283 58.304 111.224 58.628 111.195C59.0403 111.195 59.4527 111.254 59.8945 111.342C67.8471 111.46 75.1518 113.168 76.1827 114.965C78.0972 118.293 79.6288 117.645 79.6288 117.645C77.6554 129.221 64.4599 142.24 64.4599 142.24L73.6496 133.227C86.5506 118.617 88.0528 106.276 88.0528 106.276Z" fill="#363350"/>
<path d="M57.6262 70.1351C55.5938 70.2234 53.3259 69.6049 51.2935 69.4576C45.8445 69.1336 40.3955 69.2809 35.0053 69.9583C30.4988 70.518 26.0512 71.3721 21.692 72.6092C19.4535 73.2572 16.8615 73.8463 14.7703 74.8772C13.0914 75.7314 12.2077 77.8521 11.8543 79.6782C11.5303 81.5339 11.6776 83.4484 12.0016 85.304C12.9736 91.4599 15.271 99.2359 19.748 103.772C23.4887 107.571 27.7301 110.87 32.3839 113.462C40.4838 117.969 49.6146 120.089 58.8633 119.736C88.8182 118.705 100.07 95.4363 100.6 91.725C101.16 87.9843 104.046 74.9067 95.0625 71.9907C86.079 69.1336 57.6262 70.1351 57.6262 70.1351Z" fill="#D9CDCD"/>
<path d="M76.4474 78.1765C76.4474 78.1765 75.1219 116.084 70.8511 122.829C66.5802 129.574 66.6096 128.838 66.5802 129.574C66.5802 130.281 72.8834 131.341 77.3015 129.574C77.3015 129.574 86.8153 114.935 89.26 112.667C91.7341 110.429 110.231 80.9157 108.494 77.7641C106.785 74.5831 81.6019 68.4271 79.4811 69.6053C77.4783 70.7835 76.4474 78.1765 76.4474 78.1765Z" fill="white"/>
<path d="M81.6314 106.629C81.6314 106.629 93.6487 102.623 92.5884 100.738C91.528 98.8533 84.5768 99.5602 82.6917 101.092C80.8067 102.623 78.5092 107.749 81.6314 106.629Z" fill="#6C6C8C"/>
<path d="M85.1069 74.1113C85.1069 74.1113 88.7004 83.0065 86.2557 93.286C83.8109 103.566 81.7197 106.835 81.7197 106.835L77.3016 105.539L79.5401 109.545C79.5401 109.545 74.7096 123.447 68.0235 127.247C68.0235 127.247 76.1234 102.888 77.9496 91.4599C79.7168 79.9727 85.1069 74.1113 85.1069 74.1113Z" fill="#6C6C8C"/>
<path d="M80.8948 68.9571C80.8948 68.9571 86.1377 72.5505 87.0802 78.6181C88.0228 84.6857 80.8948 103.89 80.8948 103.89L77.0069 102.888L78.5679 106.335C78.5679 106.335 74.2971 122.741 67.4637 127.983C67.4637 127.983 75.1513 108.691 75.6225 95.6132C76.1232 82.5061 77.0952 67.396 80.8948 68.9571Z" fill="#787896"/>
<path d="M99.8339 51.6674C99.8339 51.6674 96.2994 50.1358 96.0933 50.4009C95.8871 50.666 96.4467 55.4081 93.4129 60.5037C90.4086 65.6287 88.6708 65.2458 89.9079 66.3062C91.1744 67.396 94.65 66.9247 94.65 66.9247C94.65 66.9247 101.69 57.2343 99.8339 51.6674Z" fill="#D9CDCD"/>
<path d="M96.5646 49.0461C96.5646 49.0461 98.6853 49.3995 98.7737 55.202C98.8621 61.0045 91.3512 67.396 89.7902 68.2502L106.108 70.4887C106.108 70.4887 88.7593 67.6906 84.9891 73.2869C81.2484 78.9127 98.5381 96.6736 98.5381 96.6736C98.5381 96.6736 101.866 95.9961 112.823 88.2791C123.78 80.5621 131.38 75.6727 129.524 69.988C127.698 64.3328 96.8003 45.865 96.5646 49.0461Z" fill="white"/>
<path opacity="0.16" d="M129.553 70.0174C129.288 69.2221 128.434 68.1323 127.168 66.9247C132.293 76.35 118.655 74.4944 114.502 74.1115C110.349 73.7875 106.697 71.549 106.697 71.549C106.697 71.549 110.614 81.3573 108.052 86.2172C105.843 90.4292 99.5984 96.2022 101.042 94.9946C101.483 94.6117 100.364 96.0255 100.364 96.0255C100.364 96.0255 101.896 96.0255 112.853 88.3085C123.78 80.562 131.38 75.6726 129.553 70.0174Z" fill="#462359"/>
<path d="M10.8821 75.9376C10.8821 75.9376 6.58176 76.5267 4.93233 84.1848C3.25343 91.8135 13.1501 113.786 17.038 117.91C20.9554 122.004 35.0346 128.189 35.5058 128.013C36.0066 127.865 37.8622 126.776 38.7163 125.804C39.4821 124.979 22.0158 89.6044 14.0926 78.9125C12.6199 76.9685 11.5006 75.8493 10.8821 75.9376Z" fill="#E2E2E4"/>
<path d="M16.6258 77.1454C16.6258 77.1454 20.8378 96.4969 22.1043 104.597C23.3708 112.697 19.424 114.758 20.3076 115.348C21.1323 115.937 25.4326 114.758 25.3148 115.348C25.2559 115.937 22.6934 116.437 24.2839 117.498C25.845 118.588 35.3587 126.982 37.9801 126.187C40.5721 125.421 24.2545 75.7022 16.6258 77.1454Z" fill="#E3E3E4"/>
<path d="M84.8713 72.2857C84.8713 72.2857 91.3807 70.43 95.4748 70.5184C99.5395 70.6362 104.547 70.754 103.899 71.6377C103.251 72.5213 99.6573 80.7096 97.0065 79.6492C94.3261 78.5005 80.7183 73.2577 84.8713 72.2857Z" fill="#E3E3E4"/>
<path opacity="0.15" d="M31.9421 72.0794C31.9421 72.0794 24.608 73.6994 25.3738 79.0601C26.1691 84.4502 41.1319 102.83 58.127 101.917C75.122 101.003 85.2249 86.6593 85.9907 81.4753C86.7565 76.2914 68.3476 66.4242 31.9421 72.0794Z" fill="#462359"/>
<path d="M40.2481 78.2059C40.2481 78.2059 41.5736 116.114 45.815 122.829C50.0858 129.574 50.0564 128.838 50.0858 129.574C50.0858 130.281 43.7826 131.341 39.3645 129.574C39.3645 129.574 29.8508 114.935 27.4061 112.667C24.9319 110.429 6.43466 80.9157 8.17246 77.7641C9.8808 74.5831 35.0642 68.4271 37.1849 69.6053C39.2172 70.754 40.2481 78.2059 40.2481 78.2059Z" fill="white"/>
<path d="M31.5593 74.1118C31.5593 74.1118 27.9659 83.007 30.4106 93.2865C32.8553 103.566 34.9466 106.835 34.9466 106.835L39.3647 105.539L37.1262 109.545C37.1262 109.545 41.9567 123.448 48.6428 127.247C48.6428 127.247 40.5429 102.889 38.7167 91.4604C36.9495 79.9732 31.5593 74.1118 31.5593 74.1118Z" fill="#6C6C8C"/>
<path d="M27.9953 72.1971C27.9953 72.1971 11.3241 75.7906 11.6481 76.2324C11.9721 76.6742 18.8939 81.2396 20.2488 86.1879C21.6037 91.1362 22.3106 94.1405 22.6935 93.6398C23.0764 93.1391 21.8393 83.6548 21.7509 81.328C21.6331 78.9716 23.8127 77.4989 24.3724 78.1763C24.9615 78.8832 25.8451 81.7109 26.552 80.5327C27.1705 79.384 30.5283 71.608 27.9953 72.1971Z" fill="#E3E3E4"/>
<path d="M35.8005 68.9276C35.8005 68.9276 30.5576 72.521 29.6151 78.5885C28.6726 84.6561 35.8005 103.86 35.8005 103.86L39.6885 102.859L38.1274 106.305C38.1274 106.305 42.3982 122.711 49.2316 127.954C49.2316 127.954 41.5441 108.661 41.0728 95.5836C40.6015 82.506 39.6001 67.4254 35.8005 68.9276Z" fill="#787896"/>
<path d="M66.3446 106.6C66.3446 106.6 66.1974 107.336 66.4919 107.395C66.8159 107.425 66.8748 106.894 66.8748 106.894C66.8748 106.894 66.9632 107.749 67.1399 107.749C67.2872 107.719 67.2577 106.806 67.2577 106.806C67.2577 106.806 67.5523 107.395 67.6995 107.366C67.8468 107.336 67.7879 106.629 67.7879 106.629C67.7879 106.629 67.9646 107.277 68.1708 107.189C68.4064 107.071 68.2886 106.541 68.2886 106.541C68.2886 106.541 68.4653 107.071 68.6421 107.012C68.8482 106.924 68.7599 106.541 68.7599 106.541C68.7599 106.541 68.8777 106.953 69.1428 106.865C69.3784 106.747 69.1428 106.453 69.1428 106.453C69.1428 106.453 69.4962 106.865 69.673 106.747C69.8202 106.659 69.3195 106.158 69.3195 106.158L66.3446 106.6Z" fill="#F79000"/>
<path d="M66.109 93.2865C66.109 93.2865 63.6643 99.4424 64.1945 102.918C64.7247 106.394 65.9323 106.953 66.6981 106.835C67.4639 106.718 69.5257 106.423 69.3196 106.099C69.1428 105.805 67.6701 101.327 70.3505 97.8224C73.0602 94.3468 73.7082 89.4574 66.109 93.2865Z" fill="#F44949"/>
<path d="M70.9691 94.9063L71.4109 95.1714C71.4109 95.1714 70.5567 92.5499 70.1149 91.8725C69.1724 91.9314 67.8469 92.3732 66.0502 93.2274C66.0502 93.2274 63.6055 99.3833 64.1357 102.859C64.6659 106.335 65.8735 106.894 66.6393 106.776C66.7571 106.776 66.9044 106.747 67.0517 106.717C67.3462 105.952 64.1062 101.18 65.255 98.4408C66.5215 95.5837 70.9691 94.9063 70.9691 94.9063Z" fill="#F45D1D"/>
<path d="M69.0544 92.8742C69.0544 92.8742 71.9703 101.033 70.91 107.749C69.8496 114.464 64.0471 117.38 65.078 118.234C66.1089 119.088 67.7584 119.383 68.4358 119C69.1133 118.617 76.8303 110.841 77.7434 103.92C78.6565 96.9978 76.4179 87.2189 76.4179 87.2189C76.4179 87.2189 69.3784 91.6665 69.0544 92.8742Z" fill="#FF7033"/>
<path d="M77.0366 90.0755C76.7126 88.3377 76.477 87.2184 76.477 87.2184C76.477 87.2184 69.349 91.6955 69.0545 92.8736C69.0545 92.8736 71.9705 101.032 70.9101 107.748C69.8498 114.464 64.0473 117.38 65.0782 118.234C65.9324 118.97 67.2283 119.265 68.0236 119.117C67.9942 119.088 66.8454 118.352 66.6098 117.998C66.3742 117.645 71.9116 110.517 74.3268 106.393C76.7421 102.27 74.4152 96.4081 74.3268 93.6689C74.2679 90.9591 77.0366 90.0755 77.0366 90.0755Z" fill="#F45D1D"/>
<path d="M39.9241 65.2166C39.9241 65.2166 29.9981 68.8984 29.8508 72.9925C29.6741 77.1161 35.3587 83.7433 39.3645 86.2764C43.3703 88.8094 47.9946 98.8533 61.8381 96.2614C75.6816 93.6694 78.1852 84.3324 82.3383 81.8877C86.4913 79.443 90.88 74.5241 85.6371 70.5773C80.3943 66.6304 57.5083 60.769 39.9241 65.2166Z" fill="#F45D1D"/>
<path d="M36.3897 68.2796C36.0951 68.3385 31.7948 70.2825 32.1483 72.6977C32.4723 75.0835 35.2704 78.1173 37.1555 81.0627C39.0406 84.0081 45.0198 87.9255 45.8445 88.9859C46.6692 90.0463 51.3524 96.7913 61.632 92.8739C71.9115 88.9564 74.9748 86.7179 74.6802 87.1892C74.3562 87.6899 63.7232 94.0226 58.7455 94.4644C53.7382 94.9357 56.2124 95.2891 58.5393 95.0829C60.8662 94.8767 71.1457 92.8444 75.5933 87.7488C80.0409 82.6532 82.3089 79.6194 84.135 78.5591C85.9906 77.4693 87.0804 75.3191 86.0495 75.9966C85.0187 76.674 81.3663 79.914 81.278 79.1187C81.1896 78.3235 83.8994 76.674 84.6063 75.0246C85.2543 73.434 52.5306 64.9807 36.3897 68.2796Z" fill="#FF7033"/>
<path d="M106.491 70.6947C106.491 70.6947 113.413 74.1409 120.54 74.7299C120.54 74.7299 116.24 76.0259 112.941 74.73C109.613 73.4634 109.613 73.4634 109.613 73.4634C109.613 73.4634 110.762 76.4383 112.47 77.1452C114.09 77.8226 108.081 78.7652 106.491 70.6947Z" fill="#6C6C8C"/>
<path opacity="0.16" d="M94.0318 106.011C95.8285 103.212 97.9492 99.8547 99.9815 96.4085C98.3026 98.382 91.0569 106.688 87.6402 107.218C83.6933 107.807 79.5697 108.514 81.4254 108.897C83.281 109.28 89.4369 109.192 89.2602 110.429C89.054 111.695 87.3456 114.759 88.3471 113.698C88.406 113.639 88.4944 113.551 88.5238 113.463C89.2896 112.579 91.6165 109.427 94.0318 106.011Z" fill="#462359"/>
<path d="M66.9042 34.702C66.9042 34.702 54.9163 32.7875 55.6821 35.4383C56.4185 38.0598 68.1707 38.9729 71.7936 39.8859C75.4459 40.8285 73.443 36.0569 66.9042 34.702Z" fill="#FFFFF3"/>
<path d="M67.3755 89.6634C59.3051 93.4925 49.6441 91.6663 43.7238 84.9802C41.5147 82.4766 39.8064 79.7079 39.6591 77.0275C39.1584 68.9276 36.8828 51.8839 47.4315 46.4888C52.5923 43.8493 52.584 48.0742 60.1146 46.0924C62.8891 46.8851 62.8891 52.4342 70.8161 48.4705C71.9648 48.7945 72.4014 48.4707 72.4014 48.4707C72.4014 48.4707 81.0718 54.5834 81.1307 55.2903C81.1896 55.9972 76.3885 81.4751 73.1486 85.6576C71.9115 87.1892 69.7908 88.5441 67.3755 89.6634Z" fill="#ECB7A2"/>
<path d="M44.3726 59.5339C43.8014 60.6381 43.5349 61.8946 43.6491 63.075C43.9157 65.3215 45.7052 67.4157 49.7032 68.3676C54.1962 69.4337 56.1 66.3115 57.2803 62.9988C53.7773 59.8005 48.9417 58.3155 44.3726 59.5339Z" fill="#28253D"/>
<path d="M65.1238 65.2072C64.4765 68.4437 64.2862 71.7563 68.3984 73.2032C72.244 74.5358 74.9094 73.7743 76.3563 72.0228C77.2701 70.9567 77.727 69.5098 77.727 67.9868C74.1098 65.5118 69.7691 64.6742 65.1238 65.2072Z" fill="#28253D"/>
<path d="M52.0299 82.6244C52.8841 82.4182 53.7383 82.2709 54.5924 82.1236C55.4466 81.9764 56.3597 81.888 57.2433 81.8291C58.1564 81.7996 59.0106 81.8291 59.9237 81.9764C60.8073 82.0942 61.6615 82.3593 62.4862 82.7127C62.5451 82.7127 62.5745 82.8011 62.5451 82.8305C62.5451 82.8895 62.4567 82.9189 62.4273 82.8895C61.6026 82.6538 60.7484 82.4476 59.8942 82.3593C59.04 82.2709 58.1859 82.2415 57.3022 82.3004C56.4481 82.3298 55.5644 82.4476 54.7103 82.536C53.8561 82.6244 52.9725 82.7422 52.0888 82.86C52.0299 82.86 51.971 82.8011 51.971 82.7422C51.9416 82.7127 51.971 82.6833 52.0299 82.6244Z" fill="black"/>
<path opacity="0.4" d="M56.8309 85.599C56.8604 85.5695 56.8899 85.5401 56.8899 85.5401L56.9193 85.5106C56.9488 85.4812 57.0077 85.4812 57.0077 85.4812L57.1844 85.4223C57.3022 85.3633 57.42 85.3633 57.5673 85.3339C57.8029 85.275 58.068 85.2455 58.3331 85.2161C58.5982 85.1866 58.8338 85.1866 59.0989 85.2161C59.364 85.2455 59.6291 85.275 59.8353 85.3633C59.8942 85.3633 59.9236 85.4517 59.9236 85.5106C59.9236 85.5695 59.8647 85.5695 59.8353 85.599C59.364 85.6579 58.8633 85.6873 58.3626 85.7168L57.6262 85.7463L57.2433 85.7757L57.0666 85.7757L56.9782 85.8052L56.9193 85.8052C56.8604 85.8641 56.8015 85.8641 56.7426 85.8052C56.8015 85.7463 56.772 85.6579 56.8309 85.599Z" fill="#EF7958"/>
<path opacity="0.4" d="M61.8972 76.4682C61.7499 77.1456 59.747 77.9114 57.8325 77.5285C55.9474 77.1162 54.8871 75.7024 55.0343 75.0249C55.1816 74.3475 56.5365 75.1133 58.4216 75.5256C60.3361 75.9085 62.0444 75.7907 61.8972 76.4682Z" fill="#EF7958"/>
<path d="M57.1552 76.9686C56.949 76.8802 56.7134 76.7624 56.5367 76.6446C56.3599 76.5268 56.1537 76.3795 55.977 76.2617C55.7708 76.1144 55.5941 75.9966 55.4174 75.8199C55.2407 75.6431 55.0639 75.5253 54.9167 75.3191C54.8872 75.2897 54.8578 75.2013 54.9167 75.1424C54.9461 75.113 55.005 75.113 55.0345 75.1424C55.2407 75.2308 55.4763 75.3486 55.653 75.4664C55.8297 75.5842 56.0359 75.7315 56.2127 75.8493C56.3894 75.9671 56.5956 76.1144 56.7723 76.2911C56.949 76.4679 57.1257 76.5857 57.273 76.7919C57.3025 76.8213 57.3319 76.9097 57.273 76.9686C57.2141 76.9686 57.1846 76.998 57.1552 76.9686Z" fill="black"/>
<path d="M59.3935 77.0279C59.5997 76.9395 59.7764 76.8806 59.9532 76.8217C60.1299 76.7628 60.3655 76.7039 60.5423 76.6449C60.7484 76.6155 60.9252 76.5566 61.1313 76.5271C61.3375 76.4977 61.5437 76.4682 61.7499 76.4977C61.8088 76.4977 61.8677 76.5566 61.8677 76.6155C61.8677 76.6744 61.8382 76.7039 61.8088 76.7333C61.6026 76.8217 61.4259 76.8806 61.2492 76.9395C61.0724 76.9984 60.8663 77.0279 60.6601 77.1162C60.4539 77.1457 60.2772 77.2046 60.071 77.234C59.8648 77.2635 59.6586 77.2929 59.4524 77.2635C59.3935 77.2635 59.3346 77.2046 59.3346 77.1457C59.3641 77.0573 59.3935 77.0279 59.3935 77.0279Z" fill="black"/>
<path d="M50.675 70.7837C51.4997 70.5481 52.295 70.283 53.0608 69.9296C53.8266 69.5761 54.563 69.1343 55.1226 68.5157C55.1521 68.4863 55.1815 68.5157 55.1815 68.5157C55.211 68.5452 55.211 68.5452 55.1815 68.5747C54.9164 68.8987 54.5924 69.2226 54.2684 69.4877C53.915 69.7234 53.5321 69.9296 53.1492 70.1357C52.3539 70.5186 51.4997 70.7248 50.675 70.9015C50.6456 70.931 50.6161 70.9015 50.6161 70.8426C50.6161 70.8426 50.6456 70.8132 50.675 70.7837Z" fill="black"/>
<path d="M62.7513 71.3138C63.6055 72.4036 64.4007 73.4934 65.3138 74.5243C65.3433 74.5538 65.3138 74.5832 65.3138 74.5832C65.2844 74.6127 65.2549 74.5832 65.2549 74.5832C64.7247 74.1119 64.2829 73.6112 63.8411 73.0516C63.4287 72.5214 63.0164 71.9323 62.6629 71.3432C62.6335 71.3138 62.6629 71.2843 62.6924 71.2549C62.6924 71.2549 62.7218 71.2843 62.7513 71.3138Z" fill="black"/>
<path d="M47.3172 57.8827C47.1699 59.7384 58.1858 60.3863 58.5982 58.7958C59.0105 57.2053 61.0723 52.4926 60.0709 52.3748C59.0695 52.257 54.6513 53.7886 52.2655 54.8195C49.8797 55.8504 47.3172 57.8827 47.3172 57.8827Z" fill="#28253D"/>
<path d="M76.3592 64.2446C75.829 66.0119 65.3433 62.5952 65.52 60.9457C65.7262 59.3257 65.52 54.1713 66.5214 54.4658C67.4934 54.7309 71.0279 57.7941 72.8836 59.5908C74.7392 61.4465 76.3592 64.2446 76.3592 64.2446Z" fill="#28253D"/>
<path d="M71.4906 71.9251C71.4022 72.3081 70.6364 72.4259 69.8706 72.1902C69.1048 71.9546 68.5452 71.4539 68.6335 71.071C68.7219 70.6881 69.4877 70.5703 70.2535 70.8059C71.0488 71.071 71.6084 71.5717 71.4906 71.9251Z" fill="#423939"/>
<path d="M55.2243 66.9836C55.1359 67.3665 54.7824 67.6021 54.0166 67.3665C53.2508 67.1309 52.6912 66.6301 52.7796 66.2472C52.8679 65.8643 53.6337 65.7465 54.3995 65.9821C55.1654 66.2178 55.3126 66.6007 55.2243 66.9836Z" fill="#423939"/>
<path d="M63.0383 25.0922C61.7118 25.3869 60.3853 25.5343 59.1326 26.0502C57.8798 26.4186 56.5533 26.8608 55.3742 27.303C52.9424 28.261 50.5105 29.5137 48.5208 31.0613C47.4154 31.7245 46.4574 32.6825 45.5731 33.5668C44.6888 34.5985 43.8045 35.4828 43.0676 36.5145C41.4463 38.5779 40.3409 41.0098 39.0881 43.4417L39.0145 43.368L39.7514 41.452C39.9725 40.7887 40.1935 40.1255 40.4883 39.5359L41.4463 37.6936C41.7411 37.1041 42.1832 36.5145 42.5517 35.9987C43.2886 34.8196 44.1729 33.7879 45.0573 32.7562C46.0153 31.7982 46.9733 30.8402 48.1523 30.1033C50.3631 28.482 52.795 27.2293 55.3742 26.4186C57.6587 25.608 60.3853 25.0922 63.0383 25.0922Z" fill="#C0C0C0"/>
<path opacity="0.4" d="M67.3755 89.6638C69.7613 88.5151 71.9115 87.1896 73.0896 85.658C74.0322 84.4209 75.0925 81.4166 76.1529 77.7054C73.3253 77.4108 69.9086 77.3519 68.1119 78.3828C65.4021 79.9144 59.6291 86.7478 61.897 91.3721C63.7232 91.0776 65.5788 90.518 67.3755 89.6638Z" fill="#FCCAC0"/>
<path opacity="0.4" d="M48.9079 77.7349C48.4367 72.7277 42.2513 69.4877 40.1306 68.5452C39.7182 71.8441 39.4826 74.9073 39.6004 77.028C39.7771 79.7378 41.4855 82.5065 43.6651 84.9807C43.9596 85.3341 44.2542 85.6287 44.5782 85.9527C46.5221 84.5389 49.3203 81.7407 48.9079 77.7349Z" fill="#FCCAC0"/>
<path d="M96.5354 56.7338C96.4471 56.1152 96.2703 55.7029 96.1231 55.7323C95.6518 55.8502 91.7049 61.2697 90.6446 61.2697C89.5842 61.2697 90.9097 54.996 90.5857 52.6102C90.2617 50.2244 78.9512 40.5634 78.9512 40.5634L76.4476 41.5943C78.7451 43.8917 83.3399 47.4262 83.3399 47.4262C83.3399 47.4262 75.8291 44.5103 71.7938 43.5383L69.8204 44.3336C72.0295 46.6015 79.8643 51.432 79.8643 51.432C79.8643 51.432 63.4583 46.1008 63.1343 47.3084C62.8103 48.5161 77.5669 57.4407 77.5669 57.4407C77.5669 57.4407 64.1652 53.2876 63.8707 54.7604C63.5761 56.2331 79.6287 64.6864 79.6287 64.6864C79.6287 64.6864 74.3269 69.7526 72.9426 71.4315C71.5582 73.1103 74.592 72.0794 80.4534 69.1046C86.2853 66.1002 92.6474 63.9206 92.6474 63.9206C92.6474 63.9206 95.5634 60.5334 96.5354 56.7338Z" fill="#D8A38F"/>
<line x1="56.1941" y1="65.0313" x2="64.9137" y2="67.4094" stroke="black"/>
</g>
</svg>
