<svg width="121" height="117" viewBox="0 0 121 117" fill="none" xmlns="http://www.w3.org/2000/svg">
<path d="M119.406 58.0755C119.406 89.2651 93.0689 114.651 60.4528 114.651C27.8368 114.651 1.5 89.2651 1.5 58.0755C1.5 26.8859 27.8368 1.5 60.4528 1.5C93.0689 1.5 119.406 26.8859 119.406 58.0755Z" fill="#2D4558" stroke="#8DA3DE" stroke-width="3"/>
<mask id="mask0" mask-type="alpha" maskUnits="userSpaceOnUse" x="0" y="0" width="121" height="117">
<ellipse cx="60.4528" cy="58.0755" rx="60.4528" ry="58.0755" fill="white"/>
</mask>
<g mask="url(#mask0)">
<g clip-path="url(#clip0)">
<path d="M84.571 128.558C80.5975 118.409 65.0256 116.1 59.9782 115.671V115.563C59.9782 115.563 59.7097 115.563 59.1728 115.617C58.6895 115.563 58.3673 115.563 58.3673 115.563V115.671C53.3199 116.154 37.7481 118.463 33.7746 128.612C29.0494 140.801 32.9155 153.473 52.9441 169.582C53.2125 170.226 55.253 169.85 54.8771 168.83C54.8771 168.83 52.3534 161.796 52.9441 149.123C53.3199 140.801 56.8102 138.008 59.1728 137.096C61.5354 138.008 65.0256 140.801 65.4015 149.123C66.0459 161.688 63.898 168.83 63.898 168.83C63.5759 169.689 65.2404 170.011 65.4552 169.528C85.4838 153.365 89.3499 140.693 84.571 128.558Z" fill="#FCE0CA"/>
<path opacity="0.16" d="M63.8981 168.83C63.8444 168.991 63.8444 169.153 63.8981 169.26C64.1666 169.367 64.4888 169.421 64.7573 169.475C65.4016 167.273 66.046 165.018 66.5829 162.763C66.9051 161.367 67.0125 159.756 67.6569 158.521C68.6234 156.695 69.751 154.869 71.3082 153.581C71.7377 153.205 72.221 152.883 72.7043 152.614C75.1206 151.379 77.9665 151.54 80.705 151.648C81.1882 151.648 81.7252 151.648 82.2085 151.54C83.9267 148.587 85.108 145.795 85.7524 143.003C86.0209 141.929 86.1819 140.801 86.2893 139.727C86.2893 139.62 86.2893 139.566 86.2893 139.459C86.3967 138.331 86.3967 137.257 86.2893 136.13C86.2893 136.022 86.2893 135.915 86.2893 135.807C86.2356 135.27 86.182 134.68 86.0746 134.143C86.0746 134.089 86.0746 133.982 86.0209 133.928C85.9135 133.391 85.8061 132.854 85.6987 132.317C85.6987 132.263 85.6987 132.21 85.645 132.156C85.4839 131.619 85.3765 131.028 85.1617 130.491C85.108 130.384 85.108 130.277 85.0543 130.169C84.8932 129.632 84.6785 129.095 84.4637 128.558C80.4902 118.41 64.9184 116.101 59.8709 115.671V115.564C59.8709 115.564 59.6025 115.564 59.0655 115.618C58.5822 115.564 58.2601 115.564 58.2601 115.564V115.671C53.2126 116.155 37.6408 118.464 33.6673 128.612C33.5062 129.095 33.3451 129.525 33.1841 130.008C33.1841 130.062 33.1304 130.116 33.1304 130.169C32.0027 133.606 31.6269 137.257 32.1101 140.855C32.1101 140.908 32.1101 140.962 32.1101 141.016C32.4323 143.271 33.0767 145.473 33.9895 147.567C34.258 148.157 34.4728 148.694 34.7949 149.285C34.956 149.661 35.2245 150.037 35.3856 150.413C35.8689 151.272 36.3521 152.077 36.8891 152.936C36.9428 152.99 37.0502 153.044 37.1039 153.097C38.0167 153.634 39.0906 153.795 40.1108 154.01C42.4198 154.44 44.675 155.03 46.9302 155.675C47.6283 155.89 48.4337 156.104 48.9707 156.641C49.4539 157.071 49.7761 157.769 50.0983 158.36C51.1185 160.078 51.9239 161.85 52.622 163.729C53.1053 165.125 53.5885 166.683 53.6959 168.186C53.6959 168.723 53.8033 169.153 53.9107 169.475C54.4477 169.367 54.9309 169.153 54.8235 168.83C54.8235 168.83 54.4476 167.864 54.0718 165.931C54.0181 165.609 53.9107 165.286 53.857 164.911C53.6422 163.783 53.4274 162.494 53.2663 160.937C52.8905 157.823 52.6757 153.903 52.8905 149.124C53.2663 140.801 56.7566 138.009 59.1192 137.096C61.4818 138.009 64.9721 140.801 65.3479 149.124C66.046 161.689 63.8981 168.83 63.8981 168.83Z" fill="#462359"/>
<path d="M91.1218 85.0105C91.1218 85.0105 93.914 84.044 96.3303 89.1451C98.7467 94.2462 99.8743 119.43 99.391 123.349C98.9614 127.269 89.1351 142.734 86.0207 142.143C82.9063 141.606 81.5103 135.699 81.5103 135.699C81.5103 135.699 85.0542 87.212 91.1218 85.0105Z" fill="#F44949"/>
<path opacity="0.16" d="M91.2293 94.4072C91.2293 94.4072 91.6588 111.966 94.7732 115.026C97.8876 118.087 92.0884 118.033 92.4643 118.893C92.8401 119.752 96.0619 120.128 94.8806 122.114C93.6993 124.155 94.2899 127.215 92.518 129.685C90.746 132.155 83.9803 122.168 83.8729 120.718C83.8192 119.268 85.7523 98.5418 91.2293 94.4072Z" fill="#462359"/>
<path d="M32.3785 114.06C32.3785 114.06 24.1094 121.201 23.6261 129.041C23.1965 136.881 25.935 146.6 41.2384 151.862C56.5417 157.124 80.1679 146.868 85.2153 143.754C90.3165 140.639 93.3771 134.464 92.518 129.685C91.6589 124.907 90.746 119.43 84.6247 115.617C78.557 111.751 54.9845 98.6492 32.3785 114.06Z" fill="#3B1960"/>
<path opacity="0.21" d="M73.0263 116.1C67.1735 116.315 42.7955 110.086 30.8213 115.617C29.103 117.389 26.3646 120.611 24.8074 124.369C27.0626 124.906 35.0633 127.108 36.1372 132.263C37.3722 138.223 36.1372 141.767 36.1372 141.767C36.1372 141.767 43.8157 136.934 54.0717 137.793C64.2739 138.652 69.1065 147.029 69.1065 147.029C69.1065 147.029 68.9991 134.142 73.2411 133.175C77.4831 132.263 79.3088 134.947 79.3088 134.947C79.3088 134.947 86.504 128.987 87.3632 124.638C88.2223 120.235 80.5975 115.778 73.0263 116.1Z" fill="#3B1960"/>
<path d="M93.6456 92.4209C92.8938 82.5945 80.9733 76.7954 80.9733 76.7954C77.4294 75.5603 36.889 75.614 33.345 76.849C33.345 76.849 21.4245 82.7019 20.6728 92.5283C19.921 102.355 24.0019 123.403 35.8687 123.726C47.6818 123.994 48.4873 122.276 57.186 122.276C65.9385 122.276 66.7439 123.994 78.557 123.726C90.3701 123.296 94.451 102.247 93.6456 92.4209Z" fill="#F44949"/>
<path opacity="0.16" d="M90.8534 91.0249C91.3904 90.3806 91.8736 89.7362 92.0347 88.9308C92.3032 87.481 90.3165 82.7558 88.6519 82.4336C71.2544 78.997 37.587 78.8896 37.587 78.8896C36.2983 81.7355 35.1707 84.5814 34.1505 87.5347C33.345 90.0047 20.7265 78.9433 18.7397 80.3931C26.3109 99.4015 38.0703 101.335 43.0103 104.019C48.3799 106.919 54.1791 108.906 59.9782 110.839C61.6428 111.429 63.4148 111.966 65.1867 111.698C66.905 111.429 68.4085 110.355 69.8046 109.335C73.617 106.597 77.3757 103.805 81.1881 101.066C84.8932 98.3276 87.6854 94.6226 90.746 91.186C90.6923 91.186 90.7997 91.0786 90.8534 91.0249Z" fill="#462359"/>
<path opacity="0.16" d="M41.3997 89.1453C41.3997 89.1453 47.9506 109.389 60.5691 108.1C73.1877 106.811 81.8864 91.9912 80.7051 88.2325C79.5238 84.4738 43.7086 76.1509 41.3997 89.1453Z" fill="#462359"/>
<path d="M22.5523 128.021L21.3173 127.43C21.3173 127.43 -1.18127 109.657 0.536998 104.448C2.25527 99.2399 10.9003 99.6158 12.2964 103.75C13.6925 107.885 19.2232 120.074 22.4986 123.296C25.8278 126.464 23.4115 128.397 22.5523 128.021Z" fill="#FFD1C0"/>
<path opacity="0.16" d="M12.6722 111.644C14.1757 111.322 15.3033 111.751 16.0013 112.181C14.7663 109.603 13.6924 107.08 12.9407 105.254C9.8263 105.254 4.5104 107.026 3.27539 110.409C8.21542 116.637 18.1492 124.799 20.7266 126.893C20.7266 126.893 13.9609 120.074 12.35 118.034C10.7391 116.047 10.0411 112.288 12.6722 111.644Z" fill="#462359"/>
<path d="M17.5048 80.7688C17.5048 80.7688 -0.322255 99.2403 -7.97161e-05 103.482C0.107312 105.093 0.483184 106.865 1.18123 108.369C1.98667 110.087 3.32907 111.376 4.51038 112.825C5.5843 114.114 6.65822 115.403 7.78583 116.691C9.66519 118.893 11.5445 121.256 13.7461 123.189C16.8604 125.927 17.4511 125.873 17.4511 125.873C17.4511 125.873 20.8876 124.746 21.532 121.631C22.069 119.054 17.6122 108.852 14.2293 106.597L14.1756 106.328C14.1756 106.328 25.3444 101.979 26.5257 98.3274C27.6533 94.6224 32.7544 71.3184 17.5048 80.7688Z" fill="#F44949"/>
<path opacity="0.15" d="M20.5118 91.4004C19.5453 101.764 6.87305 105.684 3.43651 102.515C2.30889 101.495 1.93302 100.314 1.87933 99.1863C1.44976 99.8307 1.12758 100.368 0.859104 100.958C0.805408 101.012 0.751712 101.119 0.751712 101.173C0.698016 101.28 0.64432 101.388 0.590625 101.495C0.536929 101.603 0.483233 101.71 0.483233 101.764C0.429537 101.871 0.429537 101.978 0.375841 102.032C0.322145 102.14 0.322145 102.247 0.268449 102.354C0.268449 102.408 0.214753 102.515 0.214753 102.569C0.161057 102.677 0.161057 102.784 0.161057 102.891C0.161057 102.945 0.161057 102.999 0.107361 103.052C0.107361 103.213 0.053665 103.321 0.107361 103.482C0.107361 103.804 0.161057 104.073 0.214753 104.395C0.429537 105.845 0.859104 107.241 1.34237 108.422C1.93302 109.603 2.73846 110.57 3.5976 111.59C6.55087 103.482 14.2294 106.22 14.2294 106.22C14.2294 106.22 14.2831 106.22 14.3368 106.167C14.3905 106.167 14.3905 106.113 14.4442 106.113C14.4979 106.113 14.5516 106.059 14.6053 106.059C14.6053 106.059 14.6053 106.059 14.659 106.059C14.7127 106.059 14.7664 106.006 14.8201 106.006C14.8201 106.006 14.8201 106.006 14.8737 106.006C15.5718 105.737 16.6994 105.2 18.0955 104.556C18.0955 104.556 18.0955 104.556 18.1492 104.556C18.3103 104.502 18.4177 104.395 18.5788 104.341H18.6325C18.7936 104.287 18.9009 104.18 19.062 104.126C19.062 104.126 21.3173 102.891 21.371 102.891C21.0488 100.851 21.3173 99.5622 21.1025 97.3069C20.6729 93.763 20.5118 91.4004 20.5118 91.4004Z" fill="#462359"/>
<path opacity="0.8" d="M14.1756 106.274C14.1756 106.274 9.98736 104.341 5.79907 105.63C5.79907 105.63 9.82627 105.2 12.35 106.274C12.35 106.274 10.6317 106.221 9.98736 107.08C9.98736 107.08 12.9943 106.435 14.1756 106.274Z" fill="#BF2B3D"/>
<path opacity="0.8" d="M51.0112 104.771C51.0112 104.771 53.2664 111.376 55.8975 115.403C58.5286 119.43 57.5084 120.504 58.9582 120.45C60.408 120.397 58.4749 118.947 58.0991 117.605C57.7232 116.262 54.3404 109.604 54.3941 106.114C54.5551 102.677 50.8501 102.516 51.0112 104.771Z" fill="#BF2B3D"/>
<path opacity="0.8" d="M67.6569 104.073C67.6569 104.073 65.9923 110.838 63.6834 115.08C61.4281 119.322 62.5021 120.289 61.0523 120.343C59.6025 120.396 61.4281 118.785 61.6429 117.443C61.8577 116.047 64.6499 109.12 64.274 105.684C63.9518 102.247 67.6032 101.764 67.6569 104.073Z" fill="#BF2B3D"/>
<path d="M58.7969 107.402C58.7969 107.402 27.5996 97.6296 19.8137 83.078C12.0278 68.5264 34.4727 56.3374 59.0654 56.6596C83.6582 57.0354 96.1156 71.8018 95.5787 78.1379C94.988 84.5278 88.276 96.7167 58.7969 107.402Z" fill="#F44949"/>
<path opacity="0.15" d="M87.578 68.6332C87.4706 68.6869 73.1875 61.3305 58.1526 56.659C39.7886 56.6053 22.8207 63.5321 19.0083 73.1437C19.9211 72.6604 21.1561 72.2308 21.2635 73.1437C21.4246 74.6471 18.2029 77.3319 20.7266 81.4665C23.2503 85.6011 32.7545 93.0649 34.7412 94.2462C36.728 95.4275 21.8542 84.6346 22.8744 80.2315C23.8946 75.8285 26.3109 74.5398 28.1366 75.7748C29.9623 77.0635 85.8061 74.0028 85.8061 74.0028C85.8061 74.0028 92.357 73.9491 90.9072 79.8557C89.4574 85.7622 73.0801 94.0851 76.9462 93.387C80.8123 92.689 94.29 86.0307 93.592 78.6743C93.0013 71.318 87.7391 68.5258 87.578 68.6332Z" fill="#462359"/>
<path opacity="0.8" d="M59.1191 105.522C57.6693 104.986 55.8973 103.052 54.8234 102.301C52.3534 100.475 49.776 98.8105 47.1449 97.2533C44.6749 95.8035 41.8827 94.6759 39.5201 93.065C37.1038 91.4004 34.6874 89.4137 32.5933 87.3732C31.3046 86.1382 29.5326 84.4737 29.3178 82.5406C28.6198 77.2784 37.8555 68.1501 44.9971 67.1299C52.1923 66.1096 78.1811 71.6403 84.5173 75.2379C90.8534 78.8356 85.0542 86.2456 81.6714 87.7491C79.9531 88.5545 78.4496 90.1117 77.0535 91.3467C74.6909 93.4409 72.382 95.5887 70.0731 97.6829C67.8178 99.7233 65.5089 101.817 63.0926 103.697C62.2872 104.287 61.2132 105.415 60.2467 105.684C59.8708 105.737 59.5487 105.684 59.1191 105.522Z" fill="#BF2B3D"/>
<path d="M35.0633 77.7085C35.0633 77.7085 31.8416 81.8968 33.3451 85.0648C34.8486 88.2866 54.555 102.086 58.0989 102.194C61.6428 102.248 65.1868 100.851 70.7711 94.6764C76.3555 88.4477 82.5843 85.3333 84.5173 81.7357C86.4504 78.0844 58.26 70.3521 35.0633 77.7085Z" fill="#3B1960"/>
<path d="M71.3245 87.6357C71.7381 81.5112 66.173 76.1478 58.8946 75.6563C51.6161 75.1648 45.3805 79.7313 44.9669 85.8558C44.5533 91.9804 50.1184 97.3438 57.3968 97.8353C64.6753 98.3268 70.9109 93.7603 71.3245 87.6357Z" fill="#FCE0CA"/>
<path opacity="0.2" d="M72.9605 85.3873C73.3741 79.2627 66.8976 73.8378 58.4948 73.2703C50.092 72.7029 42.945 77.2078 42.5314 83.3324C42.1178 89.4569 48.5943 94.8819 56.997 95.4493C65.3998 96.0168 72.5469 91.5118 72.9605 85.3873Z" fill="#FA7296"/>
<path d="M59.8709 57.8404C59.9783 58.3774 52.2997 69.1166 68.0864 70.0831C68.0864 70.0831 61.5355 80.2316 72.3283 80.9297C72.3283 80.9297 68.7844 85.4401 71.5229 88.4471C74.2614 91.5078 79.8458 89.9506 79.8458 89.9506C79.8458 89.9506 76.1408 94.5684 83.4971 96.77C83.4971 96.77 79.5236 100.743 83.3897 103.482C87.2558 106.22 85.6449 108.046 82.1547 108.315C82.1547 108.315 86.7189 110.248 89.2426 106.489C89.2426 106.489 89.4574 109.174 93.8604 109.12C93.8604 109.12 92.9476 107.133 93.5919 104.824C93.5919 104.824 97.458 109.335 102.291 102.301C102.291 102.301 98.3172 104.502 97.1359 102.086C95.9546 99.6695 100.465 92.4743 89.1352 94.5147C89.1352 94.5147 93.2161 89.0914 87.5243 87.8027C87.5243 87.8027 96.4915 78.3523 88.0076 77.1172C88.0076 77.1172 95.3639 68.0963 85.806 64.8746C85.806 64.8746 101.432 61.8139 93.2698 43.9332C85.0543 25.9987 58.3674 49.6249 59.8709 57.8404Z" fill="#9197D3"/>
<path opacity="0.4" d="M93.4308 105.469C92.7865 105.254 92.1958 104.932 91.7126 104.61C89.2426 103.053 87.4169 100.153 88.9204 97.3611C89.6184 96.0724 90.6386 94.9448 91.9273 94.1931C91.7126 94.1931 91.4978 94.1931 91.283 94.2467C90.746 94.6763 90.1017 94.9985 89.4036 95.1596C88.6519 95.3207 87.9538 95.3207 87.2558 95.2133H87.2021C86.9873 95.2133 86.7188 95.1596 86.4504 95.1596C85.9671 95.1059 85.5912 94.8911 85.1617 94.73C84.571 94.4078 84.1414 94.032 83.8193 93.495C83.4971 92.958 83.3897 92.3674 83.4434 91.7767C83.5508 90.488 84.4636 89.4678 85.6986 88.7698C85.9671 88.6087 86.2893 88.5013 86.5578 88.3402C86.6651 88.2865 86.8262 88.1791 86.9336 88.1254C87.1484 88.018 87.3632 87.9106 87.578 87.8569C87.578 87.8569 87.6854 87.6958 87.8465 87.5348C85.6986 87.7495 83.6045 87.5348 82.0473 86.8904C80.2753 86.1387 79.9532 84.2593 80.7049 82.7021C80.2216 81.306 80.7049 79.6414 82.7453 78.6749C84.4636 77.8695 86.4504 77.0103 88.3834 76.5808C89.1889 75.4532 90.7997 72.8221 90.6386 70.191C89.0815 70.191 87.578 69.4929 87.2021 67.7747C87.041 67.1303 86.9336 66.4859 86.8799 65.7879C86.7188 65.5731 86.6115 65.3583 86.5041 65.1435C86.2356 65.0362 85.9671 64.9288 85.6986 64.8214C85.6986 64.8214 85.9134 64.7677 86.2893 64.6603C85.5912 62.942 85.5912 60.7405 85.8597 59.237C86.5041 55.4783 88.0612 51.827 91.3367 48.9811C92.4106 48.0145 93.6456 47.7461 94.7195 47.9071C94.3437 46.6721 93.8604 45.3297 93.2161 43.88C85.0543 25.9992 58.3137 49.6254 59.8172 57.7872C59.9246 58.3242 52.246 69.0634 68.0326 70.0299C68.0326 70.0299 61.4817 80.1784 72.2746 80.8765C72.2746 80.8765 68.7307 85.3869 71.4692 88.3939C74.2077 91.4546 79.7921 89.8974 79.7921 89.8974C79.7921 89.8974 76.087 94.5152 83.4434 96.7168C83.4434 96.7168 79.4699 100.69 83.336 103.429C87.2021 106.167 85.5912 107.993 82.101 108.261C82.101 108.261 86.6651 110.194 89.1889 106.436C89.1889 106.436 89.4036 109.121 93.8067 109.067C93.8604 109.121 93.1087 107.456 93.4308 105.469Z" fill="#B58BE0"/>
<path opacity="0.5" d="M95.2566 105.952C95.9546 106.221 96.8138 106.328 97.7803 106.06C96.9749 106.113 96.1157 106.113 95.2566 105.952Z" fill="#93362A"/>
<path d="M85.3229 69.2778C85.9673 68.7945 86.7727 68.2575 87.4708 67.6132C87.8466 67.291 88.2762 66.9688 88.5984 66.593C88.9742 66.2171 89.3501 65.8412 89.726 65.519C90.1019 65.1432 90.424 64.7673 90.7462 64.3377C90.9073 64.1229 91.0684 63.9619 91.2295 63.7471C91.3906 63.5323 91.498 63.3712 91.659 63.1564C91.9275 62.7805 92.196 62.4047 92.4645 62.0288C92.6793 61.6529 92.894 61.3308 93.1088 60.9549C93.2162 60.7938 93.3236 60.6327 93.3773 60.4716C93.431 60.3105 93.5384 60.1494 93.5921 60.0421C93.6995 59.7736 93.8069 59.5051 93.9143 59.344C94.0754 58.9681 94.1827 58.6997 94.1827 58.6997C94.1827 58.6997 94.2364 58.4849 94.3975 58.0553C94.5049 57.6257 94.7734 57.0888 94.8808 56.3907C94.9345 56.0149 95.0419 55.639 95.0956 55.2631C95.1493 54.8872 95.1493 54.4577 95.203 53.9744C95.203 53.7596 95.2567 53.5448 95.2567 53.3301C95.2567 53.1153 95.2567 52.9005 95.2567 52.632C95.2567 52.4172 95.2567 52.1487 95.2567 51.934V51.6118L95.203 51.2896C95.1493 50.86 95.0419 50.3768 94.9882 49.9472C94.8808 49.5176 94.7734 49.0881 94.666 48.6585C94.6123 48.4437 94.5586 48.2289 94.5049 48.0679C94.4512 47.8531 94.3438 47.692 94.2901 47.5309C94.1291 47.155 93.968 46.8329 93.8606 46.5107C93.5921 45.8663 93.2699 45.3831 93.0551 45.0609C92.8404 44.7387 92.733 44.5239 92.6793 44.5239C92.6256 44.5776 93.0014 45.3831 93.5384 46.6181C93.6458 46.9402 93.7532 47.2624 93.9143 47.6383C93.968 47.7994 94.0217 48.0142 94.1291 48.1752C94.1828 48.39 94.2365 48.5511 94.2901 48.7659C94.3975 49.1955 94.5049 49.625 94.5586 50.0546C94.6123 50.4842 94.666 50.9674 94.7197 51.397L94.7734 51.7192V52.0414C94.7734 52.2561 94.7734 52.4709 94.7734 52.7394C94.7734 52.9542 94.7734 53.169 94.7734 53.3838C94.7734 53.5985 94.7197 53.8133 94.7197 54.0281C94.666 54.4577 94.6123 54.8872 94.5586 55.2631C94.4512 55.639 94.3975 56.0149 94.2901 56.337C94.1828 57.0351 93.9143 57.572 93.8069 57.9479C93.6458 58.3238 93.5921 58.5386 93.5921 58.5386C93.5921 58.5386 93.4847 58.7533 93.3236 59.1292C93.2162 59.344 93.1625 59.5588 93.0014 59.8273C92.9477 59.9347 92.8941 60.0957 92.7867 60.2568C92.6793 60.4179 92.6256 60.579 92.5182 60.6864C92.3571 61.0086 92.1423 61.3308 91.9275 61.7066C91.7127 62.0825 91.4443 62.4047 91.1758 62.8342C91.0684 63.049 90.9073 63.2101 90.7999 63.4249C90.6388 63.586 90.4777 63.8008 90.3166 64.0156C89.9945 64.3914 89.726 64.821 89.3501 65.1432C88.9742 65.519 88.6521 65.8949 88.3299 66.2708C88.0077 66.6467 87.5782 66.9688 87.256 67.291C86.5579 67.989 85.8062 68.526 85.2155 69.0093C83.9805 69.9758 83.0677 70.5665 83.1214 70.6201C83.1214 70.6201 83.3899 70.5128 83.7657 70.2443C84.0879 70.0832 84.6786 69.761 85.3229 69.2778Z" fill="#817EFF"/>
<path d="M75.8185 63.1029C75.8185 63.1029 78.8792 64.5527 80.6511 65.3044C80.5438 65.5729 80.4364 65.8414 80.329 66.1635C80.0068 66.9153 79.6309 67.6133 79.3087 68.1503C78.9866 68.6873 78.7718 69.0094 78.8255 69.0631C78.8792 69.0631 79.2014 68.7946 79.5772 68.3114C80.0068 67.8281 80.4901 67.1301 80.8659 66.3783C81.027 66.1098 81.1344 65.8951 81.2418 65.6266C81.6177 65.7877 81.8862 65.8414 81.8862 65.8414C81.9398 65.7877 81.6714 65.6266 81.3492 65.4118C81.5103 65.0359 81.6714 64.6601 81.7788 64.3379C81.9935 63.7472 82.1546 63.3714 82.1546 63.3714C82.1546 63.3714 82.262 62.9955 82.4231 62.4048C82.5842 61.8142 82.7453 61.0624 82.9601 60.3107C83.1749 59.5589 83.3896 58.8072 83.6044 58.2702C83.8192 57.7333 83.9266 57.3574 83.8729 57.3037C83.8192 57.3037 83.6044 57.6259 83.2823 58.1628C83.0138 58.6998 82.6916 59.4515 82.3694 60.2033C82.1009 60.955 81.8325 61.7068 81.6714 62.2974C81.4566 62.8344 81.3492 63.2103 81.3492 63.2103C81.3492 63.2103 81.2418 63.5861 81.0807 64.1231C81.027 64.3916 80.9196 64.6601 80.8122 64.9822C79.1477 64.0157 76.3555 62.5122 76.3555 62.5122C76.3555 62.5122 70.3415 59.6663 70.1804 59.8274C70.0731 59.9885 75.8185 63.1029 75.8185 63.1029Z" fill="#817EFF"/>
<path d="M75.4427 75.5064C75.4427 75.4527 74.5299 75.4527 73.2412 75.3453C72.5968 75.2916 71.8451 75.1842 71.0396 75.0232C70.2342 74.8621 69.4287 74.6473 68.6233 74.3788C67.0124 73.8418 65.6163 73.0364 64.6498 72.3384C64.3813 72.1773 64.1665 72.0162 64.0055 71.8551C63.8444 71.694 63.6296 71.5866 63.5222 71.4792C63.2537 71.2644 63.1463 71.1034 63.1463 71.1034C63.1463 71.1034 62.9852 70.996 62.7705 70.7275C62.6631 70.6201 62.502 70.459 62.3409 70.2979C62.1798 70.1368 62.0187 69.922 61.8576 69.7073C61.1596 68.8481 60.3541 67.5057 59.9783 66.0559C59.7635 65.3579 59.6561 64.6061 59.6024 63.9081C59.5487 63.2101 59.6024 62.512 59.6561 61.975C59.7635 60.8474 60.032 60.042 59.9246 60.042C59.8709 60.042 59.8172 60.2031 59.7098 60.579C59.6561 60.74 59.5487 60.9548 59.495 61.1696C59.4413 61.3844 59.3339 61.6529 59.2802 61.975C59.1728 62.5657 59.0654 63.2637 59.0654 63.9618C59.0654 64.7135 59.1191 65.4653 59.3339 66.217C59.6561 67.7205 60.4078 69.1703 61.1596 70.0831C61.3207 70.3516 61.4817 70.5664 61.6428 70.7275C61.8039 70.9423 61.965 71.1034 62.0724 71.2107C62.3409 71.4792 62.4483 71.5866 62.4483 71.5866C62.4483 71.5866 62.6094 71.7477 62.8778 71.9625C62.9852 72.0699 63.2 72.231 63.4148 72.3921C63.6296 72.5531 63.8444 72.7142 64.1128 72.8753C65.1331 73.5734 66.6903 74.3788 68.3548 74.8621C69.214 75.1306 70.0731 75.2916 70.8785 75.4527C71.7377 75.5601 72.4894 75.6675 73.1875 75.6675C74.5299 75.6675 75.4427 75.5064 75.4427 75.5064Z" fill="#817EFF"/>
<path d="M89.0279 86.0314C89.1353 85.8703 89.2427 85.7092 89.3501 85.4944C89.4038 85.387 89.5112 85.2259 89.5648 85.1185C89.6185 84.9574 89.6722 84.85 89.7796 84.689C89.887 84.3668 90.0481 84.0446 90.1555 83.7224C90.3703 83.0781 90.5851 82.4337 90.6388 81.9505C90.7462 81.4672 90.7462 81.145 90.6925 81.145C90.5314 81.145 90.1555 82.4337 89.5648 83.615C89.4038 83.9372 89.2427 84.2057 89.0816 84.4742C89.0279 84.6353 88.9205 84.7426 88.8668 84.85C88.7594 84.9574 88.7057 85.0648 88.652 85.1722C88.4909 85.387 88.3835 85.5481 88.2761 85.6555C88.2224 85.7629 88.1151 85.8166 88.1151 85.8166C88.1151 85.8166 87.9003 86.085 87.5781 86.5146C87.417 86.7294 87.2022 86.9442 86.9874 87.159C86.7727 87.3738 86.5042 87.6422 86.2357 87.9107C85.9672 88.1255 85.6987 88.394 85.4303 88.6088C85.1618 88.8235 84.8933 89.0383 84.6785 89.1994C84.249 89.5216 83.9805 89.7901 83.9805 89.8438C84.0342 89.8975 84.3563 89.7364 84.8396 89.4142C85.1081 89.2531 85.3766 89.092 85.6987 88.9309C85.9672 88.7161 86.2894 88.5014 86.6116 88.2866C86.9337 88.0718 87.2022 87.8033 87.4707 87.5885C87.7392 87.3737 88.0077 87.159 88.1688 86.9442C88.5446 86.5146 88.8131 86.2461 88.8131 86.2461C88.8131 86.2461 88.9205 86.1924 89.0279 86.0314Z" fill="#817EFF"/>
<path d="M84.7858 96.6629C85.4301 96.6092 85.806 96.5555 85.806 96.5018C85.806 96.4481 85.3764 96.4481 84.7858 96.3944C84.1951 96.3407 83.4434 96.1796 82.799 95.8575C82.1547 95.5353 81.564 95.1594 81.1882 94.7835C80.9734 94.6225 80.866 94.4614 80.7586 94.354C80.6512 94.2466 80.5975 94.1929 80.5975 94.1929C80.5975 94.1929 80.5438 94.1392 80.4901 94.0318C80.4364 93.9244 80.2753 93.7633 80.1679 93.5485C79.8995 93.119 79.7384 92.5283 79.631 91.8303C79.5773 91.2396 79.7384 90.649 79.8995 90.1657C80.1142 90.112 80.329 90.112 80.5975 90.0583C81.403 89.8972 82.2621 89.6287 82.799 89.3066C83.3897 89.0381 83.6582 88.7159 83.6045 88.7159C83.5508 88.6622 83.2286 88.877 82.638 89.0918C82.0473 89.3066 81.2956 89.4676 80.4901 89.575C80.3827 89.575 80.2216 89.6287 80.1142 89.6287C80.2216 89.3603 80.2753 89.1992 80.2753 89.1992C80.2216 89.1992 80.0605 89.3603 79.8458 89.6287C79.3088 89.6824 78.7718 89.6824 78.3423 89.6824C77.7516 89.6824 77.3758 89.6287 77.3758 89.6287C77.3758 89.6287 76.9999 89.6287 76.4092 89.575C75.8186 89.5213 75.0668 89.3603 74.4225 89.0918C73.7244 88.8233 73.1875 88.4474 72.8653 88.0179C72.5968 87.5883 72.4894 87.2661 72.4357 87.2661C72.382 87.2661 72.3283 87.642 72.5431 88.1252C72.7579 88.6085 73.3486 89.1992 74.0466 89.5213C74.7446 89.8972 75.5501 90.0583 76.1407 90.1657C76.7314 90.2731 77.161 90.3268 77.161 90.3268C77.161 90.3268 77.5905 90.3268 78.2349 90.3268C78.5571 90.3268 78.9866 90.2731 79.4162 90.2194C79.2014 90.7027 78.9866 91.2933 78.9866 91.884C78.9866 92.6357 79.1477 93.3337 79.3625 93.8707C79.4699 94.1392 79.631 94.3003 79.6847 94.4614C79.7921 94.6225 79.8458 94.6761 79.8458 94.6761C79.8458 94.6761 79.8995 94.7298 80.0069 94.8909C80.1142 94.9983 80.2753 95.2131 80.4901 95.3742C80.9197 95.7501 81.6177 96.1796 82.3695 96.4481C83.336 96.6092 84.1414 96.6629 84.7858 96.6629Z" fill="#817EFF"/>
<path d="M88.0075 95.6423C88.1149 95.696 88.974 94.7831 89.5646 93.7092C89.8331 93.1722 90.0479 92.5816 90.1016 92.152C90.1553 91.9372 90.1553 91.7224 90.1553 91.6151C90.1553 91.5077 90.1553 91.4003 90.1553 91.4003C90.1553 91.4003 90.1553 91.3466 90.1553 91.1855C90.1553 91.0781 90.1553 90.8633 90.0479 90.6485C89.9405 90.219 89.7257 89.682 89.4036 89.1987C88.7592 88.2322 87.7927 87.5342 87.6853 87.5879C87.5779 87.6416 88.3833 88.5007 88.8129 89.4672C89.0277 89.9505 89.1888 90.4337 89.1888 90.8096C89.2425 91.0244 89.1888 91.1855 89.2425 91.2929C89.2425 91.4003 89.2425 91.454 89.2425 91.454C89.2425 91.454 89.2425 91.5077 89.2425 91.6151C89.2425 91.7224 89.2425 91.8835 89.2425 92.0983C89.2425 92.4742 89.0814 93.0112 88.9203 93.5481C88.5981 94.622 87.9001 95.5886 88.0075 95.6423Z" fill="#817EFF"/>
<path d="M87.578 105.308C87.041 104.878 86.0208 104.771 85.2691 104.449C84.5173 104.073 83.873 103.589 83.4971 103.16C83.2823 102.945 83.1212 102.784 83.0675 102.623C82.9601 102.462 82.9065 102.408 82.9065 102.408C82.9065 102.408 82.6917 102.086 82.4232 101.603C82.2084 101.119 81.9936 100.368 82.101 99.6159C82.101 99.4011 82.1547 99.24 82.2084 99.0252C82.2084 98.9178 82.2621 98.8641 82.2621 98.7567C82.3158 98.6493 82.3158 98.5956 82.3695 98.4883C82.4232 98.3272 82.5306 98.1661 82.5843 98.005C82.6917 97.8439 82.7454 97.6828 82.8528 97.5754C82.9065 97.5217 82.9065 97.468 82.9602 97.3606C83.0138 97.3069 83.0675 97.2533 83.0675 97.1996C83.1749 97.0922 83.2286 96.9848 83.2823 96.9311C83.3897 96.77 83.4434 96.6626 83.4434 96.6626C83.4434 96.6626 83.336 96.7163 83.1749 96.8237C83.1212 96.8774 83.0138 96.9848 82.9065 97.0385C82.8528 97.0922 82.7991 97.1459 82.7454 97.1996C82.6917 97.2533 82.638 97.3069 82.5843 97.4143C82.4769 97.5754 82.3695 97.6828 82.2621 97.8439C82.1547 98.005 82.0473 98.1661 81.9399 98.3809C81.8862 98.4883 81.8325 98.542 81.7788 98.6493C81.7251 98.7567 81.7251 98.8641 81.6715 98.9715C81.6178 99.1863 81.5104 99.4011 81.5104 99.6159C81.2956 100.475 81.4567 101.334 81.6715 101.925C81.8325 102.193 81.8862 102.462 81.9936 102.623C82.101 102.784 82.1547 102.891 82.1547 102.891C82.1547 102.891 82.2084 102.999 82.3158 103.106C82.4232 103.267 82.638 103.428 82.8528 103.697C83.336 104.126 84.0878 104.663 84.9469 104.985C85.4302 105.147 85.8597 105.2 86.2893 105.308C86.7189 105.361 87.041 105.469 87.3095 105.63C87.8465 105.898 87.7928 106.382 87.9002 106.382C87.9002 106.382 87.9539 106.274 87.9539 106.113C87.9539 105.791 87.8465 105.522 87.578 105.308Z" fill="#817EFF"/>
<path d="M95.8471 105.469C95.5786 105.415 95.2564 105.254 94.9342 105.039C94.6657 104.825 94.3973 104.61 94.2362 104.449C94.0751 104.234 93.9677 104.127 93.9677 104.127C93.9677 104.127 93.8603 104.019 93.6992 103.804C93.5381 103.59 93.3233 103.321 93.1086 103.053C92.7327 102.462 92.4105 101.818 92.3031 101.871C92.1957 101.925 92.3031 102.623 92.5716 103.267C92.679 103.59 92.8401 103.912 93.0012 104.18C93.1623 104.395 93.2696 104.556 93.2696 104.556C93.2696 104.556 93.4307 104.717 93.6455 104.878C93.8603 105.093 94.2362 105.308 94.612 105.469C94.9879 105.63 95.4712 105.737 95.7934 105.684C96.1155 105.684 96.3303 105.63 96.3303 105.576C96.3303 105.576 96.1155 105.523 95.8471 105.469Z" fill="#817EFF"/>
<path d="M87.578 100.153C87.5244 100.046 87.4706 99.9381 87.4706 99.8844C87.417 99.8308 87.417 99.777 87.417 99.777C87.417 99.777 87.3633 99.616 87.2559 99.3475C87.1485 99.1327 87.0948 98.7568 86.9874 98.4347C86.8263 97.7366 86.8263 96.9849 86.7189 96.9849C86.6115 96.9849 86.3967 97.7366 86.3967 98.4884C86.4504 98.8642 86.4504 99.2401 86.5041 99.5623C86.5578 99.8307 86.6115 100.046 86.6115 100.046C86.6115 100.046 86.6115 100.099 86.6652 100.153C86.7189 100.207 86.7726 100.314 86.8263 100.475C86.9337 100.744 87.2022 101.066 87.4706 101.334C88.0076 101.925 88.8131 102.301 88.8667 102.193C88.9204 102.086 88.3835 101.603 88.0076 101.012C87.8465 100.69 87.6317 100.421 87.578 100.153Z" fill="#817EFF"/>
<path d="M97.297 100.099C97.5654 99.1325 97.7265 98.1123 97.6191 97.3605C97.6191 97.1457 97.5654 96.9846 97.5118 96.8235C97.4581 96.6625 97.4044 96.5551 97.3507 96.4477C97.2433 96.2329 97.1896 96.1255 97.1896 96.1255C97.1896 96.1255 97.1359 96.0181 96.9748 95.857C96.8674 95.6422 96.5989 95.4275 96.2767 95.159C95.9546 94.8905 95.525 94.6757 95.0417 94.4609C94.5585 94.2998 93.9678 94.1924 93.3772 94.1387C92.1959 94.0851 91.0145 94.3535 90.2091 94.622C89.4037 94.8905 88.9204 95.2127 88.9204 95.2664C88.9204 95.3201 89.4574 95.1053 90.2628 94.8905C91.0682 94.6757 92.1959 94.5146 93.2161 94.622C93.753 94.6757 94.2363 94.7831 94.6659 94.9979C95.0954 95.2127 95.4176 95.4275 95.6861 95.6422C95.9546 95.857 96.1157 96.0718 96.223 96.2329C96.3304 96.394 96.3841 96.5014 96.3841 96.5014C96.3841 96.5014 96.4378 96.6088 96.5452 96.7699C96.5989 96.8772 96.6526 96.9309 96.7063 97.092C96.76 97.1994 96.8137 97.3605 96.8137 97.5216C96.9748 98.1659 96.8674 99.0788 96.6526 100.045C96.5452 100.529 96.4915 101.012 96.4378 101.441C96.4378 101.656 96.3841 101.871 96.3841 102.086C96.3841 102.193 96.3841 102.301 96.3841 102.408C96.3841 102.515 96.4378 102.623 96.4378 102.676C96.5452 103.428 96.9211 103.804 96.9211 103.804C96.9748 103.75 96.76 103.321 96.76 102.676C96.76 101.978 97.0285 101.012 97.297 100.099Z" fill="#817EFF"/>
<path d="M95.4177 101.173C94.8807 101.495 94.0753 101.066 93.592 100.207C93.1088 99.3476 93.1625 98.3811 93.6994 98.0589C94.2364 97.7367 95.0418 98.1663 95.5251 99.0254C96.0084 99.8846 95.9547 100.851 95.4177 101.173ZM93.0014 95.8574C92.4107 95.5352 91.7664 95.5352 91.6053 95.8574C91.4442 96.1795 91.7664 96.6628 92.357 96.985C92.9477 97.3071 93.592 97.3071 93.7531 96.985C93.9142 96.6628 93.592 96.1795 93.0014 95.8574Z" fill="#817EFF"/>
<path d="M35.0097 56.1221C35.0097 56.1221 26.7405 53.1152 24.7538 60.5789C22.767 67.989 31.3584 76.9562 36.4058 73.8955C41.4532 70.7811 37.6408 57.5182 35.0097 56.1221Z" fill="#FCE0CA"/>
<path opacity="0.2" d="M35.0098 56.1224C35.0098 56.1224 34.0969 55.8002 32.8082 55.6392C33.1304 56.552 33.3452 57.4648 33.3989 58.485C33.2915 59.6664 33.2378 60.8477 33.1304 62.029C32.7545 63.1566 32.325 64.2842 31.788 65.4118C30.6604 67.3449 29.1032 68.9558 27.1165 70.2445C29.6939 73.6273 33.56 75.614 36.3522 73.8958C41.4533 70.7814 37.6409 57.5185 35.0098 56.1224Z" fill="#FA7296"/>
<path opacity="0.2" d="M36.567 64.1233C38.2316 67.3988 37.7483 70.7816 35.4931 71.6408C33.2379 72.4999 30.1235 70.5131 28.5126 67.2377C26.9017 63.9622 27.3313 60.5794 29.5865 59.7203C31.7881 58.8611 34.9561 60.8479 36.567 64.1233Z" fill="#FA7296"/>
<path d="M34.0435 71.1569C34.0435 71.1569 34.1508 71.2643 34.4193 71.3717C34.6878 71.4791 35.1174 71.6402 35.708 71.5328C36.2987 71.4254 36.7819 70.8884 36.9967 70.3515C37.2652 69.8145 37.3189 69.1702 37.3726 68.5795C37.5874 66.1095 36.8356 63.7469 36.8356 63.7469C36.8356 63.7469 36.7819 63.5858 36.6746 63.3173C36.5672 63.0488 36.2987 62.673 35.9765 62.2971C35.3322 61.5453 34.3119 60.7399 33.0769 60.0955C32.4326 59.8271 31.7345 59.5586 31.0365 59.5586C30.3384 59.5049 29.6404 59.8271 29.3182 60.2566C28.996 60.6325 28.8349 61.0084 28.8349 61.2769C28.7813 61.5453 28.7812 61.7064 28.7812 61.7064C28.8886 61.7601 28.996 61.0621 29.5867 60.4714C29.9089 60.1492 30.4458 59.9345 30.9828 60.0419C31.5734 60.0955 32.1641 60.3103 32.7011 60.6325C33.775 61.2232 34.7415 62.0823 35.2785 62.7803C35.5469 63.1562 35.708 63.4247 35.8154 63.6395C35.8691 63.8543 35.9228 64.0154 35.9228 64.0154C35.9228 64.0154 36.1376 64.5523 36.2987 65.4114C36.5135 66.2706 36.6746 67.3982 36.6746 68.5795C36.6746 69.7071 36.4061 70.9958 35.5469 71.2643C34.7415 71.4791 34.0971 71.0495 34.0435 71.1569Z" fill="#FA7296"/>
<path d="M31.5197 70.567C31.627 70.5133 31.1975 69.4394 31.466 68.3655C31.5733 67.8285 31.7881 67.3453 32.0566 67.0231C32.164 66.862 32.2714 66.7546 32.3788 66.6472C32.4325 66.5398 32.4862 66.4861 32.4862 66.4861C32.4862 66.4861 32.6473 66.2713 32.9694 66.0029C33.2916 65.7344 33.7749 65.4122 34.3655 65.1974C35.4932 64.7679 36.8355 64.9289 36.8355 64.8216C36.8892 64.7142 35.5468 64.3383 34.1508 64.6605C33.4527 64.8216 32.8084 65.1437 32.4325 65.4659C32.0029 65.7881 31.7881 66.0029 31.7881 66.0029C31.7881 66.0029 31.7344 66.0566 31.627 66.164C31.5197 66.2713 31.4123 66.4324 31.3049 66.6472C31.0364 67.0768 30.8753 67.6674 30.8216 68.2581C30.6605 69.5468 31.4123 70.6207 31.5197 70.567Z" fill="#FA7296"/>
<path d="M82.7991 54.5116C82.7991 54.5116 90.8535 50.9677 93.3235 58.2703C95.7935 65.5193 87.8465 75.0771 82.5843 72.3386C77.3221 69.6002 80.2217 56.0688 82.7991 54.5116Z" fill="#FCE0CA"/>
<path opacity="0.2" d="M82.7991 54.512C82.7991 54.512 83.7119 54.1362 84.9469 53.8677C84.6785 54.7805 84.5174 55.747 84.5174 56.7136C84.6785 57.8949 84.8395 59.0225 85.0006 60.2038C85.4839 61.3314 85.9672 62.4053 86.5578 63.4792C87.7928 65.3586 89.5111 66.8621 91.5515 67.9897C89.2426 71.5336 85.4839 73.7889 82.5843 72.2854C77.3221 69.6006 80.2217 56.0692 82.7991 54.512Z" fill="#FA7296"/>
<path opacity="0.2" d="M81.7254 62.62C80.3293 66.0029 81.0274 69.3857 83.2826 70.0838C85.5915 70.7818 88.5448 68.634 89.9946 65.1974C91.3907 61.8146 90.6927 58.4854 88.4374 57.7337C86.1285 57.0357 83.1752 59.2372 81.7254 62.62Z" fill="#FA7296"/>
<path d="M84.7325 69.4393C84.7325 69.4393 84.6251 69.5467 84.3567 69.7078C84.0882 69.8152 83.6586 70.03 83.068 69.9226C82.4773 69.8152 81.9403 69.3319 81.6719 68.795C81.4034 68.258 81.2423 67.6674 81.1349 67.023C80.759 64.6067 81.3497 62.1904 81.3497 62.1904C81.3497 62.1904 81.4034 62.0293 81.4571 61.7608C81.5645 61.4923 81.7793 61.0628 82.0477 60.6869C82.6384 59.8815 83.6049 58.9686 84.8399 58.3243C85.4306 58.0021 86.1286 57.7336 86.8267 57.6799C87.5247 57.5725 88.2765 57.841 88.5986 58.2706C88.9745 58.6465 89.1356 59.0223 89.1893 59.2908C89.243 59.5593 89.2967 59.7204 89.243 59.7204C89.1356 59.7741 89.0282 59.1297 88.3302 58.5391C88.008 58.2169 87.471 58.1095 86.8804 58.1632C86.2897 58.2706 85.6991 58.5391 85.2158 58.8612C84.1419 59.5593 83.2827 60.4184 82.7995 61.1702C82.531 61.546 82.4236 61.8145 82.3162 62.0293C82.2625 62.2441 82.2088 62.4052 82.2088 62.4052C82.2088 62.4052 82.0477 62.9421 81.8866 63.8013C81.7256 64.6604 81.6182 65.8417 81.7256 66.9693C81.7793 68.0969 82.1551 69.3856 83.068 69.6004C84.0345 69.8152 84.7325 69.332 84.7325 69.4393Z" fill="#FA7296"/>
<path d="M87.2564 68.6875C87.149 68.6338 87.5249 67.5598 87.2027 66.4859C87.0416 65.949 86.7731 65.4657 86.5046 65.1972C86.3972 65.0361 86.2362 64.9287 86.1825 64.8213C86.0751 64.714 86.0751 64.714 86.0751 64.714C86.0751 64.714 85.8603 64.4992 85.5381 64.2844C85.2159 64.0159 84.679 63.7474 84.0883 63.5863C82.907 63.2105 81.6183 63.4789 81.5646 63.3716C81.5109 63.2642 82.7996 62.7809 84.2494 63.0494C84.9475 63.1568 85.5918 63.4253 86.0214 63.7474C86.4509 64.0159 86.7194 64.2307 86.7194 64.2307C86.7194 64.2307 86.7731 64.2844 86.8805 64.3918C86.9879 64.4992 87.0953 64.6603 87.2564 64.875C87.5249 65.2509 87.7933 65.8416 87.847 66.4859C88.0081 67.6672 87.3101 68.7411 87.2564 68.6875Z" fill="#FA7296"/>
<path d="M83.6584 65.7339C84.3027 85.6551 72.597 92.2597 58.4213 92.6893C44.2455 93.1726 33.0231 87.3197 32.3787 67.4522C31.7344 47.531 42.6346 31.0464 56.8104 30.5631C70.9861 30.0798 83.014 45.8127 83.6584 65.7339Z" fill="#FCE0CA"/>
<path opacity="0.2" d="M78.2886 66.7541C71.6303 66.9689 66.4218 72.5532 66.6365 79.2115C66.7976 84.4737 70.1805 86.4068 74.9057 87.9103C80.1142 83.0239 83.6045 77.8691 83.7119 67.828C82.0473 67.0762 80.2216 66.7004 78.2886 66.7541Z" fill="#FA7296"/>
<path opacity="0.2" d="M37.5872 68.0967C35.7615 68.1504 34.0433 68.6337 32.4861 69.3854C33.1841 79.534 36.5133 86.0312 43.8696 90.0047C48.6486 88.2327 50.2057 85.0647 50.0447 79.7488C49.8299 73.0905 44.2455 67.882 37.5872 68.0967Z" fill="#FA7296"/>
<path d="M52.0314 45.9741C52.2999 46.9406 53.7497 50.4846 44.7825 50.6994C42.9568 50.7531 41.3996 52.4176 41.1311 51.4511C40.8627 50.4846 42.7957 48.0683 44.2992 47.048C48.1116 44.4169 51.7629 45.0076 52.0314 45.9741Z" fill="#9197D3"/>
<path d="M64.5424 47.5847C64.3813 48.5512 63.3611 52.2562 72.221 51.4508C74.0466 51.2897 75.7649 52.7932 75.926 51.773C76.0871 50.7527 73.8855 48.6049 72.2747 47.7458C68.2475 45.5979 64.7035 46.6182 64.5424 47.5847Z" fill="#9197D3"/>
<path d="M45.1046 61.9753C41.4532 61.2772 40.5941 57.3574 40.5941 57.3574C40.3256 58.5387 39.8961 59.72 40.2182 60.9551C40.7015 62.7807 41.8291 63.962 43.6011 64.5527C44.675 64.8749 45.7489 65.0896 46.8765 64.8212C48.1115 64.5527 49.1318 63.8546 49.9372 62.9418C50.4742 62.3511 50.7963 61.8142 51.2796 61.1698C52.085 59.9885 52.3535 59.0757 52.5683 58.1629C52.5683 58.2166 50.0983 62.9955 45.1046 61.9753Z" fill="black"/>
<path d="M72.8653 61.0626C76.463 60.0961 77.1073 56.1763 77.1073 56.1763C77.4295 57.3576 77.9665 58.4852 77.698 59.7739C77.3221 61.6533 76.3019 62.8883 74.5836 63.5863C73.5634 64.0159 72.4895 64.2307 71.3619 64.0696C70.1268 63.9085 69.0529 63.2641 68.1938 62.405C67.6031 61.8143 67.2273 61.3848 66.744 60.6867C65.8312 59.5591 65.509 58.6463 65.2405 57.7871C65.1868 57.7871 67.9253 62.405 72.8653 61.0626Z" fill="black"/>
<path opacity="0.4" d="M62.8779 69.3312C62.8242 70.244 60.4079 71.5864 57.8842 71.479C55.4141 71.3717 53.7496 69.7608 53.8033 68.9016C53.857 67.9888 55.7363 68.7406 58.2063 68.8479C60.7837 68.9553 62.9316 68.4184 62.8779 69.3312Z" fill="#EF7958"/>
<path d="M56.9713 70.9419C56.6491 70.8882 56.3806 70.7808 56.1121 70.6734C55.8436 70.566 55.5752 70.4586 55.3067 70.2975C55.0382 70.1364 54.7697 70.029 54.5012 69.8679C54.2328 69.7069 54.018 69.5458 53.7495 69.331C53.6958 69.2773 53.6958 69.1699 53.7495 69.1162C53.8032 69.0625 53.8569 69.0625 53.9106 69.0625C54.2328 69.1162 54.5012 69.2236 54.7697 69.3847C55.0382 69.4921 55.3067 69.5995 55.5752 69.7605C55.8436 69.9216 56.1121 70.029 56.3806 70.1901C56.6491 70.3512 56.8639 70.5123 57.1323 70.7271C57.186 70.7808 57.186 70.8882 57.1323 70.9419C57.0786 70.9419 57.0249 70.9419 56.9713 70.9419Z" fill="black"/>
<path d="M59.8708 70.5666C60.0856 70.4055 60.3004 70.2981 60.5689 70.1907C60.7837 70.0833 61.0521 69.9759 61.2669 69.8685C61.5354 69.7611 61.7502 69.7074 62.0187 69.6001C62.2872 69.5464 62.5019 69.439 62.7704 69.439C62.8241 69.439 62.9315 69.4927 62.9315 69.5464C62.9315 69.6001 62.9315 69.6537 62.8778 69.7074C62.663 69.8685 62.4482 69.9759 62.1798 70.0833C61.965 70.1907 61.6965 70.2981 61.4817 70.4055C61.2669 70.5129 60.9984 70.5666 60.73 70.674C60.4615 70.7277 60.2467 70.8351 59.9782 70.8351C59.9245 70.8351 59.8171 70.7814 59.8171 70.7277C59.8171 70.6203 59.8171 70.5666 59.8708 70.5666Z" fill="black"/>
<path opacity="0.4" d="M56.6492 82.8631L61.1059 82.3262C61.1059 82.3262 58.7433 83.6686 57.7768 83.5612C56.7566 83.5075 56.6492 82.8631 56.6492 82.8631Z" fill="#7A4739"/>
<path opacity="0.4" d="M56.8104 30.5626C42.6346 31.0459 31.7344 47.5842 32.3787 67.4517C32.4861 71.2104 33.0231 74.5933 33.8285 77.6539C33.8285 77.7076 33.8822 77.7076 33.8822 77.7613C33.8822 77.7613 31.3048 61.4915 35.2783 51.5577C35.2783 51.5577 44.7825 52.0947 52.7832 34.3213C53.4275 32.9252 54.5014 50.6449 75.0133 45.6512C75.0133 45.6512 82.5307 53.1149 83.1751 73.3046C83.4973 70.9419 83.6584 68.4719 83.551 65.7871C83.014 45.8122 70.9861 30.0793 56.8104 30.5626Z" fill="#FA7296"/>
<path d="M52.2997 30.7776C52.9441 29.3815 54.2865 48.712 74.7983 43.7183C74.7983 43.7183 82.3695 51.2894 83.0138 71.6402C83.0138 71.6402 89.0815 65.6799 87.3095 56.2294C87.3095 56.2294 91.6589 40.8724 84.7858 32.7643C84.7858 32.7643 83.8729 21.864 74.5835 19.6088C65.2941 17.3536 58.9043 22.7232 58.9043 22.7232C58.9043 22.7232 57.9378 19.1255 49.3465 19.9847C40.7551 20.8438 40.3792 26.2134 40.3792 26.2134C40.3792 26.2134 32.0564 26.2134 28.2976 34.1067C24.5389 42 20.6191 61.6527 33.7209 75.8822C33.7209 75.8822 31.1435 59.6123 35.117 49.6785C35.0633 49.6248 44.299 48.5509 52.2997 30.7776Z" fill="#9CA5F3"/>
<path opacity="0.4" d="M87.3632 56.3906C80.4901 51.5042 79.8994 40.1207 86.0208 34.4289C85.6449 33.8383 85.269 33.3013 84.8394 32.7643C84.8394 32.7643 84.571 29.5963 82.8527 26.3208C80.329 41.0872 55.8973 40.8724 55.3604 24.1193V23.9582C55.3067 22.6158 55.4678 21.4345 55.6825 20.3069C54.2864 19.8773 52.246 19.6625 49.3464 19.9847C48.541 20.0921 47.7892 20.1995 47.1449 20.3606C51.6553 28.415 48.1651 41.1946 36.0835 41.5705C32.0563 41.7316 28.942 40.3892 26.633 38.295C26.2572 39.4226 25.935 40.7113 25.6665 42.0537C31.5731 47.2086 31.9489 57.5719 26.3109 63.1026C27.707 67.5056 30.0159 71.9087 33.6672 75.8822C33.6672 75.8822 31.0898 59.6123 35.0633 49.6786C35.0633 49.6786 44.299 48.6047 52.2997 30.7776C52.944 29.3815 54.2864 48.712 74.7983 43.7183C74.7983 43.7183 82.3694 51.2894 83.0138 71.6402C83.0138 71.6402 88.974 65.7337 87.3632 56.3906Z" fill="#9197D3"/>
<path d="M78.9867 40.6576C77.8054 42.0537 75.7112 43.4498 73.2949 43.8794C70.8786 44.3626 68.4086 44.0942 66.6366 43.6646C64.8646 43.2887 63.737 42.7518 63.737 42.7518C63.737 42.7518 63.4685 42.6444 62.9316 42.4833C62.4483 42.2685 61.7503 42 60.9448 41.5168C59.2803 40.765 57.4009 39.1541 55.9511 37.1674C54.5013 35.1806 53.5885 32.8717 53.0515 31.0997C52.5146 29.3278 52.2461 28.0928 52.1387 28.0928C52.085 28.0928 52.1387 28.4149 52.1924 28.9519C52.2998 29.4889 52.3535 30.2943 52.622 31.2071C52.9978 33.0328 53.857 35.5028 55.3068 37.597C56.7029 39.6911 58.6896 41.5168 60.4079 42.3759C61.2133 42.9129 61.9651 43.235 62.4483 43.4498C62.9853 43.6646 63.2538 43.772 63.2538 43.772C63.2538 43.772 64.4351 44.2553 66.3681 44.6311C68.2475 45.007 70.8786 45.2218 73.4023 44.5774C75.926 44.0405 78.1812 42.4296 79.3088 40.8724C79.8458 40.067 80.2217 39.3689 80.3828 38.832C80.5975 38.295 80.6512 38.0265 80.6512 38.0265C80.5438 38.0265 80.168 39.2078 78.9867 40.6576Z" fill="#B58BE0"/>
<path d="M47.9504 38.8857C46.8228 40.5502 45.5341 42.0537 44.5138 43.1813C44.0306 43.7183 43.5473 44.1479 43.2251 44.47C42.903 44.7922 42.7419 44.9533 42.7419 44.9533C42.6882 44.7922 40.0571 48.2288 36.0836 48.6046C35.1171 48.712 34.1505 48.6046 33.4525 48.1751C32.7544 47.7455 32.3786 46.9401 32.3786 46.1883C32.3249 45.4903 32.4323 44.8459 32.5397 44.4164C32.647 43.9868 32.647 43.7183 32.647 43.7183C32.5933 43.7183 32.486 43.9331 32.3786 44.3627C32.2175 44.7922 32.0564 45.3829 32.0564 46.1883C31.8953 46.9401 32.2175 48.014 33.1303 48.6046C33.9894 49.249 35.1171 49.3564 36.191 49.3027C38.3388 49.1953 40.2719 48.2825 41.5606 47.3159C42.1512 46.8327 42.6345 46.4568 43.0104 46.1346C43.3862 45.8661 43.5473 45.7051 43.5473 45.7051C43.5473 45.7051 43.7084 45.544 44.0306 45.2218C44.3528 44.8996 44.7823 44.47 45.3193 43.8794C46.2858 42.6981 47.5745 41.0872 48.6484 39.3689C49.776 37.6507 50.6889 35.8787 51.3869 34.4826C52.0313 33.1402 52.4608 32.1737 52.4072 32.1737C52.1387 32.0126 50.2593 35.6102 47.9504 38.8857Z" fill="#B58BE0"/>
<path d="M89.511 42.43C89.35 40.9266 89.0278 38.9398 88.2223 37.0604C87.3632 35.2348 86.1282 33.5702 84.9469 32.6574C84.6784 32.3889 84.4099 32.2278 84.0878 32.0667C83.8193 31.9056 83.6045 31.7982 83.3897 31.6909C83.0138 31.4761 82.7991 31.3687 82.7454 31.4224C82.7454 31.4761 82.9064 31.6372 83.2823 31.9056C83.4434 32.013 83.6582 32.1741 83.873 32.3889C84.1415 32.55 84.3562 32.7648 84.6247 33.0333C85.6986 33.9998 86.7726 35.6644 87.4706 37.4363C88.1686 39.262 88.3834 41.195 88.4908 42.5911C88.5445 44.0409 88.4908 45.0075 88.4908 45.0075C88.4908 45.0075 88.4908 45.2759 88.4371 45.6518C88.3834 46.0814 88.4371 46.672 88.3297 47.4238C88.1686 48.8736 87.9002 50.8066 87.4169 52.686C86.9336 54.5653 86.343 56.4447 85.7523 57.7871C85.2154 59.1832 84.7321 60.0423 84.7858 60.096C84.8395 60.096 84.9469 59.9349 85.2154 59.5591C85.4302 59.1832 85.806 58.6462 86.1282 58.0019C86.8262 56.6595 87.578 54.8338 88.1686 52.9008C88.7593 50.9677 89.1352 49.0346 89.35 47.5312C89.4573 46.7794 89.4573 46.1351 89.511 45.7055C89.5647 45.2759 89.5647 45.0075 89.5647 45.0075C89.6184 44.9538 89.6184 43.9335 89.511 42.43Z" fill="#B58BE0"/>
<path d="M28.3514 34.3754C29.1569 33.3015 29.6938 32.6035 29.6401 32.5498C29.5864 32.4961 28.9421 33.0867 28.0292 34.1069C27.1701 35.1809 26.1499 36.6843 25.5592 38.4563C24.9686 40.1746 24.7001 42.0539 24.7001 43.3963C24.6464 44.0944 24.7538 44.6313 24.7538 45.0609C24.7538 45.4368 24.8075 45.7053 24.8075 45.7053C24.8075 45.7053 24.8612 45.92 24.9149 46.3496C24.9686 46.7255 25.0223 47.3161 25.1834 47.9605C25.4518 49.3029 25.9351 51.0212 26.5258 52.7394C27.1164 54.4577 27.8145 56.0686 28.4051 57.3036C28.9421 58.5386 29.3716 59.344 29.4253 59.2903C29.5864 59.2366 28.2977 55.9075 27.2775 52.471C26.7942 50.7527 26.3647 49.0344 26.1499 47.7457C26.0425 47.1014 25.9888 46.5644 25.9351 46.1885C25.8814 45.8127 25.8814 45.5979 25.8814 45.5979C25.8814 45.5979 25.8814 45.3831 25.8277 45.0072C25.8277 44.6313 25.7203 44.0944 25.7203 43.45C25.6666 42.1613 25.8277 40.3894 26.311 38.7248C26.7405 37.0065 27.5997 35.503 28.3514 34.3754Z" fill="#B58BE0"/>
<path d="M56.7029 25.3546C56.7566 25.4083 57.6157 24.764 58.9044 23.8511C60.2468 22.992 62.0725 21.9181 64.0592 21.2737C66.046 20.6294 68.0864 20.1998 69.6436 20.1998C70.3954 20.1461 71.0397 20.1998 71.523 20.2535C71.9525 20.3072 72.221 20.3072 72.221 20.3072C72.221 20.3072 72.2747 20.3072 72.3821 20.3072C72.4895 20.3072 72.6506 20.3609 72.9191 20.4146C73.1338 20.4683 73.4023 20.522 73.7245 20.5757C74.0467 20.6294 74.3689 20.6831 74.7447 20.8442C76.2482 21.22 78.0739 22.2402 79.6311 23.6363C81.2419 24.9787 82.1548 26.9118 82.9065 28.3079C83.4972 29.7577 83.8193 30.7779 83.9267 30.7779C83.9804 30.7779 83.7656 29.704 83.2824 28.1468C82.6917 26.6433 81.7789 24.6029 80.168 23.0457C78.6108 21.4885 76.6778 20.3072 75.0669 19.8776C74.691 19.7165 74.3152 19.6091 73.993 19.5555C73.6708 19.5018 73.4023 19.3944 73.1338 19.3944C72.9191 19.3407 72.7043 19.287 72.5969 19.287C72.4895 19.287 72.3821 19.287 72.3821 19.287C72.3821 19.287 72.1136 19.287 71.6304 19.2333C71.1471 19.2333 70.449 19.1259 69.6436 19.2333C67.979 19.287 65.8312 19.8239 63.8445 20.5757C61.804 21.3274 59.9783 22.5624 58.6896 23.529C57.4009 24.5492 56.6492 25.3009 56.7029 25.3546Z" fill="#B58BE0"/>
<path d="M40.8088 27.3949C41.0772 26.2673 41.6142 24.8175 42.5807 23.6362C43.5473 22.5086 44.7823 21.5958 45.8562 21.1662C46.3394 20.8977 46.8227 20.7903 47.1449 20.6829C47.4671 20.5755 47.6281 20.5218 47.6281 20.5218C47.6281 20.5218 47.7892 20.4681 48.1114 20.4144C48.4336 20.3607 48.8631 20.146 49.4538 20.146C50.5814 19.9312 52.0849 19.9849 53.5884 20.3071C55.0919 20.6829 56.4343 21.381 57.4008 22.079C58.3136 22.7771 58.8506 23.3677 58.958 23.314C59.0117 23.2603 58.5821 22.616 57.6693 21.7568C56.7565 20.9514 55.3604 20.0923 53.8032 19.609C52.246 19.1794 50.5814 19.0184 49.3464 19.1794C48.7021 19.1794 48.2188 19.3405 47.8966 19.3942C47.5207 19.4479 47.3597 19.5016 47.3597 19.5016C47.3597 19.5016 47.1449 19.5553 46.8227 19.7164C46.5005 19.8775 45.9636 19.9849 45.4803 20.3071C44.3527 20.844 43.064 21.9179 42.0438 23.2066C41.0235 24.549 40.594 26.1599 40.4329 27.3412C40.3792 28.5225 40.4329 29.328 40.4866 29.328C40.5403 29.328 40.594 28.5762 40.8088 27.3949Z" fill="#B58BE0"/>
<path d="M78.9867 40.6576C77.8054 42.0537 75.7112 43.4498 73.2949 43.8794C70.8786 44.3626 68.4086 44.0942 66.6366 43.6646C64.8646 43.2887 63.737 42.7518 63.737 42.7518C63.737 42.7518 63.4685 42.6444 62.9316 42.4833C62.4483 42.2685 61.7503 42 60.9448 41.5168C59.2803 40.765 57.4009 39.1541 55.9511 37.1674C54.5013 35.1806 53.5885 32.8717 53.0515 31.0997C52.5146 29.3278 52.2461 28.0928 52.1387 28.0928C52.085 28.0928 52.1387 28.4149 52.1924 28.9519C52.2998 29.4889 52.3535 30.2943 52.622 31.2071C52.9978 33.0328 53.857 35.5028 55.3068 37.597C56.7029 39.6911 58.6896 41.5168 60.4079 42.3759C61.2133 42.9129 61.9651 43.235 62.4483 43.4498C62.9853 43.6646 63.2538 43.772 63.2538 43.772C63.2538 43.772 64.4351 44.2553 66.3681 44.6311C68.2475 45.007 70.8786 45.2218 73.4023 44.5774C75.926 44.0405 78.1812 42.4296 79.3088 40.8724C79.8458 40.067 80.2217 39.3689 80.3828 38.832C80.5975 38.295 80.6512 38.0265 80.6512 38.0265C80.5438 38.0265 80.168 39.2078 78.9867 40.6576Z" fill="#817EFF"/>
<path d="M47.9504 38.8857C46.8228 40.5502 45.5341 42.0537 44.5138 43.1813C44.0306 43.7183 43.5473 44.1479 43.2251 44.47C42.903 44.7922 42.7419 44.9533 42.7419 44.9533C42.6882 44.7922 40.0571 48.2288 36.0836 48.6046C35.1171 48.712 34.1505 48.6046 33.4525 48.1751C32.7544 47.7455 32.3786 46.9401 32.3786 46.1883C32.3249 45.4903 32.4323 44.8459 32.5397 44.4164C32.647 43.9868 32.647 43.7183 32.647 43.7183C32.5933 43.7183 32.486 43.9331 32.3786 44.3627C32.2175 44.7922 32.0564 45.3829 32.0564 46.1883C31.8953 46.9401 32.2175 48.014 33.1303 48.6046C33.9894 49.249 35.1171 49.3564 36.191 49.3027C38.3388 49.1953 40.2719 48.2825 41.5606 47.3159C42.1512 46.8327 42.6345 46.4568 43.0104 46.1346C43.3862 45.8661 43.5473 45.7051 43.5473 45.7051C43.5473 45.7051 43.7084 45.544 44.0306 45.2218C44.3528 44.8996 44.7823 44.47 45.3193 43.8794C46.2858 42.6981 47.5745 41.0872 48.6484 39.3689C49.776 37.6507 50.6889 35.8787 51.3869 34.4826C52.0313 33.1402 52.4608 32.1737 52.4072 32.1737C52.1387 32.0126 50.2593 35.6102 47.9504 38.8857Z" fill="#817EFF"/>
<path d="M89.511 42.43C89.35 40.9266 89.0278 38.9398 88.2223 37.0604C87.3632 35.2348 86.1282 33.5702 84.9469 32.6574C84.6784 32.3889 84.4099 32.2278 84.0878 32.0667C83.8193 31.9056 83.6045 31.7982 83.3897 31.6909C83.0138 31.4761 82.7991 31.3687 82.7454 31.4224C82.7454 31.4761 82.9064 31.6372 83.2823 31.9056C83.4434 32.013 83.6582 32.1741 83.873 32.3889C84.1415 32.55 84.3562 32.7648 84.6247 33.0333C85.6986 33.9998 86.7726 35.6644 87.4706 37.4363C88.1686 39.262 88.3834 41.195 88.4908 42.5911C88.5445 44.0409 88.4908 45.0075 88.4908 45.0075C88.4908 45.0075 88.4908 45.2759 88.4371 45.6518C88.3834 46.0814 88.4371 46.672 88.3297 47.4238C88.1686 48.8736 87.9002 50.8066 87.4169 52.686C86.9336 54.5653 86.343 56.4447 85.7523 57.7871C85.2154 59.1832 84.7321 60.0423 84.7858 60.096C84.8395 60.096 84.9469 59.9349 85.2154 59.5591C85.4302 59.1832 85.806 58.6462 86.1282 58.0019C86.8262 56.6595 87.578 54.8338 88.1686 52.9008C88.7593 50.9677 89.1352 49.0346 89.35 47.5312C89.4573 46.7794 89.4573 46.1351 89.511 45.7055C89.5647 45.2759 89.5647 45.0075 89.5647 45.0075C89.6184 44.9538 89.6184 43.9335 89.511 42.43Z" fill="#817EFF"/>
<path d="M28.3514 34.3754C29.1569 33.3015 29.6938 32.6035 29.6401 32.5498C29.5864 32.4961 28.9421 33.0867 28.0292 34.1069C27.1701 35.1809 26.1499 36.6843 25.5592 38.4563C24.9686 40.1746 24.7001 42.0539 24.7001 43.3963C24.6464 44.0944 24.7538 44.6313 24.7538 45.0609C24.7538 45.4368 24.8075 45.7053 24.8075 45.7053C24.8075 45.7053 24.8612 45.92 24.9149 46.3496C24.9686 46.7255 25.0223 47.3161 25.1834 47.9605C25.4518 49.3029 25.9351 51.0212 26.5258 52.7394C27.1164 54.4577 27.8145 56.0686 28.4051 57.3036C28.9421 58.5386 29.3716 59.344 29.4253 59.2903C29.5864 59.2366 28.2977 55.9075 27.2775 52.471C26.7942 50.7527 26.3647 49.0344 26.1499 47.7457C26.0425 47.1014 25.9888 46.5644 25.9351 46.1885C25.8814 45.8127 25.8814 45.5979 25.8814 45.5979C25.8814 45.5979 25.8814 45.3831 25.8277 45.0072C25.8277 44.6313 25.7203 44.0944 25.7203 43.45C25.6666 42.1613 25.8277 40.3894 26.311 38.7248C26.7405 37.0065 27.5997 35.503 28.3514 34.3754Z" fill="#817EFF"/>
<path d="M56.7029 25.3546C56.7566 25.4083 57.6157 24.764 58.9044 23.8511C60.2468 22.992 62.0725 21.9181 64.0592 21.2737C66.046 20.6294 68.0864 20.1998 69.6436 20.1998C70.3954 20.1461 71.0397 20.1998 71.523 20.2535C71.9525 20.3072 72.221 20.3072 72.221 20.3072C72.221 20.3072 72.2747 20.3072 72.3821 20.3072C72.4895 20.3072 72.6506 20.3609 72.9191 20.4146C73.1338 20.4683 73.4023 20.522 73.7245 20.5757C74.0467 20.6294 74.3689 20.6831 74.7447 20.8442C76.2482 21.22 78.0739 22.2402 79.6311 23.6363C81.2419 24.9787 82.1548 26.9118 82.9065 28.3079C83.4972 29.7577 83.8193 30.7779 83.9267 30.7779C83.9804 30.7779 83.7656 29.704 83.2824 28.1468C82.6917 26.6433 81.7789 24.6029 80.168 23.0457C78.6108 21.4885 76.6778 20.3072 75.0669 19.8776C74.691 19.7165 74.3152 19.6091 73.993 19.5555C73.6708 19.5018 73.4023 19.3944 73.1338 19.3944C72.9191 19.3407 72.7043 19.287 72.5969 19.287C72.4895 19.287 72.3821 19.287 72.3821 19.287C72.3821 19.287 72.1136 19.287 71.6304 19.2333C71.1471 19.2333 70.449 19.1259 69.6436 19.2333C67.979 19.287 65.8312 19.8239 63.8445 20.5757C61.804 21.3274 59.9783 22.5624 58.6896 23.529C57.4009 24.5492 56.6492 25.3009 56.7029 25.3546Z" fill="#817EFF"/>
<path d="M40.8088 27.3949C41.0772 26.2673 41.6142 24.8175 42.5807 23.6362C43.5473 22.5086 44.7823 21.5958 45.8562 21.1662C46.3394 20.8977 46.8227 20.7903 47.1449 20.6829C47.4671 20.5755 47.6281 20.5218 47.6281 20.5218C47.6281 20.5218 47.7892 20.4681 48.1114 20.4144C48.4336 20.3607 48.8631 20.146 49.4538 20.146C50.5814 19.9312 52.0849 19.9849 53.5884 20.3071C55.0919 20.6829 56.4343 21.381 57.4008 22.079C58.3136 22.7771 58.8506 23.3677 58.958 23.314C59.0117 23.2603 58.5821 22.616 57.6693 21.7568C56.7565 20.9514 55.3604 20.0923 53.8032 19.609C52.246 19.1794 50.5814 19.0184 49.3464 19.1794C48.7021 19.1794 48.2188 19.3405 47.8966 19.3942C47.5207 19.4479 47.3597 19.5016 47.3597 19.5016C47.3597 19.5016 47.1449 19.5553 46.8227 19.7164C46.5005 19.8775 45.9636 19.9849 45.4803 20.3071C44.3527 20.844 43.064 21.9179 42.0438 23.2066C41.0235 24.549 40.594 26.1599 40.4329 27.3412C40.3792 28.5225 40.4329 29.328 40.4866 29.328C40.5403 29.328 40.594 28.5762 40.8088 27.3949Z" fill="#817EFF"/>
<path d="M72.8115 25.2465C72.7041 25.8372 71.7376 26.1056 70.6636 25.8909C69.5897 25.6761 68.7843 25.0317 68.9454 24.4411C69.0528 23.9041 70.0193 23.5819 71.0932 23.8504C72.1671 24.0652 72.9726 24.6558 72.8115 25.2465Z" fill="#817EFF"/>
<path d="M77.0534 26.8576C76.946 27.2335 76.1943 27.3946 75.4426 27.1798C74.6908 26.965 74.1539 26.428 74.2612 26.0522C74.3686 25.6763 75.1204 25.5152 75.8721 25.73C76.6776 25.9985 77.2145 26.4817 77.0534 26.8576Z" fill="#817EFF"/>
</g>
</g>
<defs>
<clipPath id="clip0">
<rect width="102.291" height="172.632" fill="white" transform="translate(0 19.019)"/>
</clipPath>
</defs>
</svg>
