<svg width="121" height="117" viewBox="0 0 121 117" fill="none" xmlns="http://www.w3.org/2000/svg">
<path d="M119.406 58.0755C119.406 89.2651 93.0689 114.651 60.4528 114.651C27.8368 114.651 1.5 89.2651 1.5 58.0755C1.5 26.8859 27.8368 1.5 60.4528 1.5C93.0689 1.5 119.406 26.8859 119.406 58.0755Z" fill="#2D4558" stroke="#8DA3DE" stroke-width="3"/>
<mask id="mask0" mask-type="alpha" maskUnits="userSpaceOnUse" x="0" y="0" width="121" height="117">
<ellipse cx="60.4528" cy="58.0755" rx="60.4528" ry="58.0755" fill="white"/>
</mask>
<g mask="url(#mask0)">
<path d="M108.295 75.7648C99.8972 62.197 80.8671 64.741 80.8671 64.741H60.3731H59.5256H39.0316C39.0316 64.741 19.9244 62.2741 11.6035 75.7648C11.7576 80.4673 15.1484 89.2089 17.3057 91.7529C19.4629 94.3739 20.2298 99.0632 20.2298 99.0632L28.0275 128.109C28.0275 128.109 43.192 137.745 59.9108 137.205C76.6296 137.745 93.3334 128.109 93.3334 128.109L100.976 95.1644C100.976 95.1644 106.159 79.0662 108.316 76.4452C108.162 81.1476 110.473 73.8241 108.316 76.4452C108.547 71.7427 108.295 75.7648 108.295 75.7648Z" fill="#0E0108"/>
<path d="M97.8656 99.5147C97.2158 108.125 95.1364 125.929 93.9667 130.218L99.815 130.706C99.815 130.706 105.946 119.489 108.587 111.211C112.753 98.1564 107.613 76.6089 107.613 76.6089L97.8656 99.5147Z" fill="#D8A38F"/>
<path d="M20.3757 99.0278C20.3757 99.0278 24.7217 123.871 29.1482 128.269" stroke="#CEEFEF" stroke-width="0.452381" stroke-miterlimit="10" stroke-linecap="round" stroke-linejoin="round"/>
<path d="M100.302 96.103C100.302 96.103 96.4393 123.431 92.5046 128.269" stroke="#CEEFEF" stroke-width="0.452381" stroke-miterlimit="10" stroke-linecap="round" stroke-linejoin="round"/>
<path d="M11.6035 75.7646L15.3787 85.0154" stroke="#CEEFEF" stroke-width="0.452381" stroke-miterlimit="10" stroke-linecap="round" stroke-linejoin="round"/>
<path d="M108.064 75.7646L104.289 85.0154" stroke="#CEEFEF" stroke-width="0.452381" stroke-miterlimit="10" stroke-linecap="round" stroke-linejoin="round"/>
<path d="M89.2397 126.627C86.8513 126.087 84.7711 124.468 83.7695 122.31C81.9204 118.224 81.7664 112.673 81.7664 112.673H81.15H40.162H39.5456C39.5456 112.673 39.4686 116.451 38.39 120.074C37.4654 123.158 35.1541 125.624 32.0723 126.704C32.1493 126.627 64.2001 139.346 89.2397 126.627Z" fill="#231C20"/>
<path d="M21.3505 98.9917C22.0003 107.602 24.0797 125.894 25.2493 130.183H19.4011C19.4011 130.183 13.2699 118.966 10.6286 110.688C6.46287 97.6334 11.6033 76.0859 11.6033 76.0859L21.3505 98.9917Z" fill="#D8A38F"/>
<path d="M39.0316 64.7412C42.2229 64.7412 44.8099 62.1526 44.8099 58.9595C44.8099 55.7663 42.2229 53.1777 39.0316 53.1777C35.8402 53.1777 33.2532 55.7663 33.2532 58.9595C33.2532 62.1526 35.8402 64.7412 39.0316 64.7412Z" fill="#BD8B7D"/>
<path d="M82.408 64.7412C85.5993 64.7412 88.1864 62.1526 88.1864 58.9595C88.1864 55.7663 85.5993 53.1777 82.408 53.1777C79.2167 53.1777 76.6296 55.7663 76.6296 58.9595C76.6296 62.1526 79.2167 64.7412 82.408 64.7412Z" fill="#BD8B7D"/>
<path d="M60.7732 23.0357H60.388C60.388 23.0357 34.1156 20.5688 37.1974 56.6468C39.971 88.0223 56.3817 89.3329 60.6191 89.1787C64.8566 89.3329 81.3443 88.0223 83.9638 56.6468C87.0456 20.5688 60.7732 23.0357 60.7732 23.0357Z" fill="#D8A38F"/>
<path opacity="0.4" d="M65.5622 72.2995C65.5161 72.8868 63.4403 73.7505 61.2723 73.6814C59.1503 73.6123 57.7203 72.5759 57.7665 72.0231C57.8126 71.4359 59.4271 71.9195 61.549 71.9886C63.7632 72.0577 65.6084 71.7122 65.5622 72.2995Z" fill="#AE6B51"/>
<path opacity="0.2" d="M78.3788 66.8651C74.1995 67.0036 70.9302 70.6047 71.0651 74.8984C71.1662 78.2917 73.2895 79.5383 76.2555 80.5078C79.5247 77.3568 81.7155 74.0327 81.7829 67.5576C80.7381 67.0728 79.5921 66.8304 78.3788 66.8651Z" fill="#996957"/>
<path opacity="0.2" d="M42.983 67.8409C41.8689 67.8743 40.8204 68.1753 39.8701 68.6434C40.2961 74.9628 42.3277 79.0086 46.8169 81.4829C49.7332 80.3795 50.6835 78.4068 50.5852 75.0966C50.4541 70.9505 47.0462 67.7072 42.983 67.8409Z" fill="#996957"/>
<path d="M59.0048 73.0388C58.7368 72.9737 58.427 72.8788 58.1887 72.7719C57.9504 72.6651 57.6704 72.5285 57.4321 72.4216C57.1521 72.285 56.9138 72.1782 56.6635 71.9999C56.4132 71.8216 56.1749 71.7147 55.9543 71.4947C55.9126 71.465 55.8588 71.3638 55.9183 71.2804C55.948 71.2387 56.0194 71.2267 56.0611 71.2564C56.3292 71.3215 56.6389 71.4164 56.8772 71.5233C57.1155 71.6301 57.3955 71.7667 57.6338 71.8736C57.8721 71.9805 58.1521 72.117 58.4024 72.2953C58.6528 72.4736 58.8911 72.5805 59.1116 72.8005C59.1534 72.8302 59.2071 72.9314 59.1476 73.0148C59.0762 73.0268 59.0465 73.0685 59.0048 73.0388Z" fill="black"/>
<path d="M62.8986 72.5904C63.1521 72.4817 63.3694 72.4093 63.5867 72.3369C63.8041 72.2644 64.0938 72.192 64.3111 72.1196C64.5646 72.0834 64.7819 72.0109 65.0354 71.9747C65.289 71.9385 65.5425 71.9023 65.796 71.9385C65.8685 71.9385 65.9409 72.0109 65.9409 72.0833C65.9409 72.1558 65.9047 72.192 65.8685 72.2282C65.6149 72.3369 65.3976 72.4093 65.1803 72.4817C64.963 72.5542 64.7095 72.5904 64.456 72.699C64.2025 72.7353 63.9851 72.8077 63.7316 72.8439C63.4781 72.8801 63.2246 72.9164 62.9711 72.8801C62.8986 72.8801 62.8262 72.8077 62.8262 72.7353C62.8624 72.6266 62.8986 72.5904 62.8986 72.5904Z" fill="black"/>
<path d="M64.2486 80.4201C63.6483 80.5749 63.0473 80.6881 62.4463 80.8013C61.8453 80.9146 61.2021 80.9869 60.5794 81.0381C59.9356 81.0688 59.3327 81.0574 58.6869 80.9635C58.0623 80.89 57.4568 80.7123 56.8711 80.472C56.8295 80.4726 56.8078 80.4106 56.8282 80.3895C56.8276 80.348 56.8896 80.3262 56.9107 80.3467C57.4951 80.5039 58.1 80.64 58.7035 80.693C59.3071 80.746 59.91 80.7575 60.5327 80.7063C61.135 80.6762 61.757 80.5834 62.3587 80.5117C62.9603 80.4401 63.5824 80.3473 64.2045 80.2545C64.246 80.2539 64.2882 80.2948 64.2889 80.3364C64.31 80.3568 64.2895 80.3779 64.2486 80.4201Z" fill="black"/>
<path d="M58.2439 59.1006V67.2721" stroke="#0E0108" stroke-width="0.603175" stroke-miterlimit="10" stroke-linecap="round" stroke-linejoin="round"/>
<path d="M54.8258 61.8882C54.8258 61.8882 50.6654 56.4148 43.8083 60.3464C43.8083 60.3464 47.7376 65.126 54.8258 61.8882Z" fill="white"/>
<path d="M51.7441 60.9633C51.7441 60.3466 51.5129 59.807 51.2048 59.3444C50.1261 58.959 48.8164 58.7277 47.3525 58.959C46.428 59.7299 46.1968 61.3488 46.8902 62.3509C47.9689 62.7364 49.2016 63.0447 50.7425 62.8905C51.3588 62.5051 51.7441 61.8113 51.7441 60.9633Z" fill="#0E0108"/>
<path d="M54.826 62.351C54.1326 62.1968 50.6656 56.8776 44.0397 60.7321C43.8086 60.8863 43.5774 60.8092 43.4233 60.5779C48.2001 55.0274 57.2144 61.9655 54.826 62.351Z" fill="#0E0108"/>
<path d="M65.304 61.8882C65.304 61.8882 69.4644 56.4148 76.3214 60.3464C76.3214 60.3464 72.3151 65.126 65.304 61.8882Z" fill="white"/>
<path d="M68.3857 60.9633C68.3857 60.3466 68.6169 59.807 68.9251 59.3444C70.0037 58.959 71.3135 58.7277 72.7773 58.959C73.7019 59.7299 73.933 61.3488 73.2396 62.3509C72.161 62.7364 70.9282 63.0447 69.3873 62.8905C68.6939 62.5051 68.3857 61.8113 68.3857 60.9633Z" fill="#0E0108"/>
<path d="M65.304 62.351C65.9974 62.1968 69.4644 56.8776 76.0903 60.7321C76.3214 60.8863 76.5526 60.8092 76.7067 60.5779C71.8528 55.0274 62.8386 61.9655 65.304 62.351Z" fill="#0E0108"/>
<path d="M52.7456 54.4893C52.7456 54.4893 45.8116 50.789 42.0364 55.7228" stroke="#0E0108" stroke-width="0.603175" stroke-miterlimit="10" stroke-linecap="round" stroke-linejoin="round"/>
<path d="M65.3811 54.4884C65.3811 54.4884 72.3152 50.7881 76.0904 55.7218" stroke="#0E0108" stroke-width="0.603175" stroke-miterlimit="10" stroke-linecap="round" stroke-linejoin="round"/>
</g>
</svg>
