<svg width="121" height="117" viewBox="0 0 121 117" fill="none" xmlns="http://www.w3.org/2000/svg">
<path d="M119.406 58.0755C119.406 89.2651 93.0689 114.651 60.4528 114.651C27.8368 114.651 1.5 89.2651 1.5 58.0755C1.5 26.8859 27.8368 1.5 60.4528 1.5C93.0689 1.5 119.406 26.8859 119.406 58.0755Z" fill="#2D4558" stroke="#8DA3DE" stroke-width="3"/>
<mask id="mask0" mask-type="alpha" maskUnits="userSpaceOnUse" x="0" y="0" width="121" height="117">
<ellipse cx="60.4528" cy="58.0755" rx="60.4528" ry="58.0755" fill="white"/>
</mask>
<g mask="url(#mask0)">
<g clip-path="url(#clip0)">
<path d="M100.625 114.659C100.625 114.659 92.348 134.201 81.8895 137.886L81.6658 130.851C81.6658 130.851 86.923 119.405 93.2987 117.898C99.6186 116.446 100.625 114.659 100.625 114.659Z" fill="#FFC2C2"/>
<path d="M92.0684 97.9653L104.484 112.147C104.484 112.147 96.3189 120.634 85.1333 122.811L85.0215 113.989C85.0215 113.934 85.3011 97.9653 92.0684 97.9653Z" fill="#8F97E2"/>
<path d="M39.0489 92.6607C39.0489 92.6607 24.7874 94.6707 21.9351 101.203C19.6979 106.34 27.8075 121.75 31.3309 128.115C32.3376 129.901 33.9595 131.186 35.917 131.8L52.8631 136.713C58.1762 138.276 63.8808 138.332 69.2499 136.881L84.6859 133.028C86.8671 132.414 88.7127 130.906 89.6635 128.841C93.6344 120.354 104.708 96.8482 79.4287 91.8232L39.0489 92.6607Z" fill="#8F97E2"/>
<path d="M70.4244 101.818C70.4244 97.9095 65.2231 89.4229 58.6237 89.4229C51.9683 89.4229 46.3755 97.9095 46.3755 101.818C46.3755 105.503 51.1293 108.574 57.2255 108.909L57.0018 108.964L59.8541 115.05L62.1471 108.574C66.9569 107.68 70.4244 105 70.4244 101.818Z" fill="#F9AFAF"/>
<path d="M41.8452 97.5186C41.8452 97.5186 41.4537 110.639 51.6885 112.649L56.9457 108.909C56.9457 108.909 48.8921 105.726 48.8921 101.259L41.8452 97.5186Z" fill="#5F6DC4"/>
<path d="M76.912 97.5186C76.912 97.5186 77.3035 110.639 67.0687 112.649L61.8674 108.909C61.8674 108.909 69.921 105.726 69.921 101.259L76.912 97.5186Z" fill="#5F6DC4"/>
<path d="M87.9857 56.3696C87.9857 56.3696 90.0551 64.7446 84.1267 71.7796L82.6726 60.5013L87.9857 56.3696Z" fill="#6C6C8C"/>
<path d="M25.179 74.7944C25.179 78.5911 29.4854 82.9461 33.3444 82.9461C37.1475 82.9461 39.049 78.6469 39.049 74.7944C39.049 70.9978 35.973 67.8711 32.114 67.8711C28.3109 67.8711 25.179 70.9419 25.179 74.7944Z" fill="#FCCAC0"/>
<path d="M30.4919 73.1191C30.4919 73.1191 32.9528 74.7383 33.7358 77.9766" stroke="#6C6C8C" stroke-width="0.96676" stroke-miterlimit="10" stroke-linecap="round"/>
<path d="M29.6531 75.5757C29.6531 75.5757 30.8835 75.1849 32.7291 75.9666" stroke="#6C6C8C" stroke-width="0.96676" stroke-miterlimit="10" stroke-linecap="round"/>
<path d="M94.9209 74.7944C94.9209 78.5911 90.6144 82.9461 86.7554 82.9461C82.9523 82.9461 81.0508 78.6469 81.0508 74.7944C81.0508 70.9978 84.1268 67.8711 87.9858 67.8711C91.7889 67.8711 94.9209 70.9419 94.9209 74.7944Z" fill="#FCCAC0"/>
<path d="M89.6078 73.1191C89.6078 73.1191 87.147 74.7383 86.364 77.9766" stroke="#6C6C8C" stroke-width="0.96676" stroke-miterlimit="10" stroke-linecap="round"/>
<path d="M90.4466 75.5757C90.4466 75.5757 89.2162 75.1849 87.3706 75.9666" stroke="#6C6C8C" stroke-width="0.96676" stroke-miterlimit="10" stroke-linecap="round"/>
<path d="M59.7424 105.279C46.3197 105.279 35.4138 94.3917 35.4138 80.9918V67.7593C35.4138 54.3035 46.3197 43.416 59.7424 43.416C73.221 43.416 84.1269 54.3035 84.1269 67.7593V80.9918C84.1269 94.3917 73.221 105.279 59.7424 105.279Z" fill="#FCE0CA"/>
<path d="M43.948 75.7598C43.948 75.7598 48.6555 71.9389 53.7098 76.7391C53.7098 76.7391 49.2792 79.9978 43.948 75.7598Z" fill="white"/>
<path d="M46.7817 75.6104C46.9105 75.0819 47.2212 74.6678 47.5818 74.3359C48.5865 74.2308 49.757 74.3062 50.963 74.8099C51.5941 75.6635 51.4542 77.0988 50.6508 77.8127C49.6462 77.9178 48.5256 77.9246 47.2375 77.4707C46.7239 76.9957 46.6047 76.3369 46.7817 75.6104Z" fill="#0E0108"/>
<path d="M43.8513 76.156C44.4776 76.1686 48.5588 72.335 53.4311 77.021C53.597 77.2013 53.8111 77.1836 53.9914 77.0176C50.9915 71.2485 41.8194 75.3109 43.8513 76.156Z" fill="#0E0108"/>
<path d="M75.3359 75.9937C75.3359 75.9937 70.8142 71.9546 65.5388 76.5108C65.5388 76.5108 69.8105 79.9751 75.3359 75.9937Z" fill="white"/>
<path d="M72.5126 75.7106C72.4089 75.1767 72.1181 74.7484 71.7736 74.3997C70.775 74.2473 69.6022 74.2673 68.3738 74.7135C67.703 75.5363 67.775 76.9766 68.5437 77.7277C69.5423 77.8801 70.6613 77.9398 71.9694 77.5474C72.5049 77.0971 72.6551 76.4447 72.5126 75.7106Z" fill="#0E0108"/>
<path d="M75.4137 76.394C74.7875 76.3771 70.892 72.3549 65.8037 76.8055C65.6296 76.9778 65.4165 76.9499 65.2442 76.7756C68.5134 71.1546 77.4833 75.6459 75.4137 76.394Z" fill="#0E0108"/>
<path d="M80.2224 84.2075C76.5368 84.3296 73.6537 87.5054 73.7726 91.2918C73.8618 94.2844 75.7343 95.3837 78.3499 96.2387C81.233 93.4599 83.165 90.5284 83.2244 84.8182C82.303 84.3907 81.2924 84.1769 80.2224 84.2075Z" fill="#EEBDB3"/>
<path d="M39.8091 85.9267C43.4947 86.0488 46.3778 89.2246 46.2589 93.0111C46.1697 96.0036 44.2972 97.1029 41.6816 97.9579C38.7985 95.1792 36.8665 92.2477 36.8071 86.5374C37.7285 86.1099 38.739 85.8962 39.8091 85.9267Z" fill="#EEBDB3"/>
<path d="M58.6237 78.8145C58.6237 78.8145 47.9975 80.0428 46.823 85.3469C46.823 85.3469 54.1495 89.0319 59.4627 84.1186C59.4627 84.1186 66.0062 87.8036 70.8719 86.5753C70.8719 86.5753 70.8719 80.0428 58.6237 78.8145Z" fill="#6C6C8C"/>
<path d="M43.9708 67.5362C45.8164 66.7546 48.9483 65.6379 52.1362 65.4704C52.5836 65.4704 52.9192 65.0796 52.9192 64.6329V63.3487C52.9192 62.9021 52.5277 62.5112 52.0803 62.5112C50.0669 62.5671 44.9215 63.0137 42.9641 66.3637C42.5166 67.0896 43.2437 67.8712 43.9708 67.5362Z" fill="#6C6C8C"/>
<path d="M74.1716 67.5362C72.326 66.7546 69.194 65.6379 66.0061 65.4704C65.5587 65.4704 65.2231 65.0796 65.2231 64.6329V63.3487C65.2231 62.9021 65.6146 62.5112 66.0621 62.5112C68.0755 62.5671 73.2208 63.0137 75.1783 66.3637C75.6257 67.0896 74.8986 67.8712 74.1716 67.5362Z" fill="#6C6C8C"/>
<path d="M60.0778 80.88C61.5319 80.88 62.7064 79.7075 62.7064 78.2558V70.1041C62.7064 68.6525 61.5319 67.48 60.0778 67.48C58.6237 67.48 57.4492 68.6525 57.4492 70.1041V78.2C57.3933 79.7075 58.5677 80.88 60.0778 80.88Z" fill="#EEBDB3"/>
<g opacity="0.18">
<path opacity="0.18" d="M46.3197 59.0494C49.2838 58.5469 52.3599 58.6027 55.1563 59.6077C58.0645 60.6685 60.4694 62.6785 62.8743 64.5769C65.2792 66.4752 67.8518 68.3735 70.8719 69.0435C73.892 69.7135 77.4155 68.9318 79.0933 66.3635C80.6034 64.1302 80.2678 61.0035 78.8696 58.7144C77.4714 56.4252 75.1784 54.7502 72.7735 53.5219C66.9011 50.5069 59.966 49.5577 53.4784 50.8977C49.172 51.7911 45.0893 53.6894 41.6217 56.3135C40.671 57.0394 37.2035 59.161 39.3287 60.2777C40.7828 61.2269 44.6418 59.3285 46.3197 59.0494Z" fill="#7F6060"/>
</g>
<path d="M28.4788 69.0436C28.4788 69.0436 26.8569 62.1202 28.8703 59.6636C30.8837 57.2069 32.1141 58.4352 32.1141 58.4352C32.1141 58.4352 41.51 33.6453 65.9504 35.2645C90.3908 36.8836 94.9209 56.0344 81.8339 62.1202C68.7468 68.2061 62.7066 50.7303 52.9192 54.8061C43.1319 58.8819 35.4138 63.4044 35.4138 72.3377L28.4788 69.0436Z" fill="#6C6C8C"/>
<path d="M48.9483 87.4128C54.1375 87.4128 58.3442 83.2132 58.3442 78.0328C58.3442 72.8524 54.1375 68.6528 48.9483 68.6528C43.7592 68.6528 39.5525 72.8524 39.5525 78.0328C39.5525 83.2132 43.7592 87.4128 48.9483 87.4128Z" stroke="#3E4588" stroke-width="1.01404" stroke-miterlimit="10"/>
<path d="M76.7959 84.8455C80.4652 81.1824 80.4652 75.2434 76.7959 71.5803C73.1267 67.9172 67.1776 67.9172 63.5083 71.5803C59.839 75.2434 59.839 81.1824 63.5083 84.8455C67.1776 88.5085 73.1267 88.5086 76.7959 84.8455Z" stroke="#3E4588" stroke-width="1.01404" stroke-miterlimit="10"/>
<path d="M58.4561 77.4744C58.4561 77.4744 59.6865 76.0785 60.805 77.4744" stroke="#8F97E2" stroke-width="1.01404" stroke-miterlimit="10"/>
<path d="M61.565 92.4438C61.8425 92.4106 62.1758 92.2806 62.4123 92.0948C62.1496 91.8787 61.8032 91.8076 61.4288 91.7849C60.5832 91.6835 59.7097 91.6305 58.8994 91.3561C58.3593 91.1731 57.8749 90.8935 57.2789 90.8073C57.1541 90.7997 57.0293 90.7921 56.9251 90.8609C56.0146 91.4312 58.3001 92.1705 58.5217 92.234C59.4568 92.516 60.5035 92.6045 61.565 92.4438Z" fill="#6C6C8C"/>
<path d="M69.5854 56.1461C70.0329 57.1511 70.8159 57.9328 71.7107 58.547C72.6055 59.1611 73.7241 59.6078 74.7867 59.4403C75.6256 59.3286 76.4086 58.882 77.0798 58.3236C77.7509 57.8211 78.3102 57.1511 78.5339 56.3136C78.7576 55.532 78.5339 54.527 77.8627 54.0245C77.5831 53.857 77.2475 53.7453 76.9679 53.8011C76.2408 54.0245 76.2408 55.0295 76.4646 55.6995C76.5764 56.0345 76.7442 56.3136 77.0238 56.537C77.4713 56.872 78.0305 56.872 78.5898 56.7045C79.9321 56.3695 81.1625 55.532 81.8895 54.3036" stroke="#8F97E2" stroke-width="1.01404" stroke-miterlimit="10"/>
<path d="M55.5476 109.914L59.0151 113.319L57.0017 108.964L55.5476 109.914Z" fill="#41519E"/>
<path d="M61.8674 108.964L60.4692 113.319L64.1045 110.528L61.8674 108.964Z" fill="#41519E"/>
<path d="M22.2147 100.645L15 115.05C15 115.05 18.2438 124.821 29.6531 124.43L34.351 112.426C34.351 112.426 28.7582 99.0816 22.2147 100.645Z" fill="#8F97E2"/>
</g>
<g clip-path="url(#clip1)">
<path d="M71.7066 27.1826C71.7066 31.9451 68.0872 35.8623 63.4496 36.334C63.4496 36.334 63.4491 36.334 63.4485 36.334C63.1393 36.3654 62.8256 36.3814 62.5078 36.3814C57.4276 36.3814 53.3091 32.2629 53.3091 27.1826C53.3091 22.1024 57.4276 17.9839 62.5078 17.9839C62.8256 17.9839 63.1393 17.9998 63.4485 18.0313C63.449 18.0313 63.4496 18.0313 63.4496 18.0313C68.0872 18.503 71.7066 22.4201 71.7066 27.1826Z" fill="#AA6100"/>
<path d="M71.7067 27.1822C71.7067 31.9447 68.0874 35.8619 63.4498 36.3336C63.4498 36.3336 63.4492 36.3336 63.4486 36.3336C58.811 35.8619 55.1917 31.9447 55.1917 27.1822C55.1917 22.4197 58.811 18.5025 63.4486 18.0308C63.4492 18.0308 63.4498 18.0308 63.4498 18.0308C68.0873 18.5026 71.7067 22.4197 71.7067 27.1822Z" fill="#CC3100"/>
<path d="M68.3545 32.3927C68.2803 32.3927 68.2052 32.3734 68.1367 32.3328C67.9335 32.2123 67.8664 31.9499 67.9869 31.7467C69.0052 30.029 69.2936 28.0175 68.799 26.0827C68.3044 24.148 67.086 22.5217 65.3682 21.5034C64.0136 20.7004 62.4276 20.473 60.9018 20.863C59.3762 21.253 58.0938 22.2137 57.2908 23.5683C55.9887 25.7647 56.7164 28.6109 58.9128 29.913C60.6294 30.9307 62.8537 30.3619 63.8713 28.6454C64.254 27.9999 64.3624 27.2439 64.1765 26.5168C63.9907 25.7897 63.5327 25.1785 62.8871 24.7959C61.8617 24.1879 60.5327 24.5276 59.9248 25.5532C59.4625 26.3331 59.7208 27.3436 60.5007 27.8059C60.7832 27.9734 61.114 28.0208 61.4324 27.9395C61.7506 27.8581 62.0181 27.6577 62.1856 27.3751C62.3061 27.1719 62.5685 27.1048 62.7718 27.2253C62.975 27.3458 63.0421 27.6082 62.9217 27.8114C62.6377 28.2906 62.184 28.6304 61.6443 28.7684C61.1047 28.9064 60.5436 28.826 60.0644 28.5419C58.8787 27.839 58.4859 26.3025 59.1888 25.1167C60.0373 23.6854 61.8922 23.2113 63.3236 24.0597C64.1657 24.5589 64.763 25.3563 65.0055 26.3047C65.248 27.2532 65.1066 28.2395 64.6073 29.0816C63.7725 30.4899 62.2803 31.2734 60.7508 31.2734C59.9753 31.2735 59.1904 31.0722 58.4765 30.6489C55.8742 29.1062 55.0122 25.7341 56.5548 23.1319C57.4743 21.5807 58.9429 20.4805 60.69 20.0339C62.4371 19.5873 64.2535 19.8478 65.8045 20.7672C67.7189 21.9021 69.0767 23.7146 69.628 25.8707C70.1792 28.0268 69.8577 30.2685 68.7228 32.1829C68.6431 32.3178 68.5007 32.3927 68.3545 32.3927Z" fill="#DFBB8B"/>
<path d="M77.95 25.8757C77.7264 25.8757 77.5382 25.702 77.5235 25.4756C77.5118 25.2958 77.2643 21.0559 79.7357 19.8492C79.948 19.7454 80.2042 19.8336 80.3079 20.0459C80.4115 20.2582 80.3234 20.5144 80.1111 20.618C78.1498 21.5757 78.3749 25.3815 78.3773 25.4199C78.3927 25.6556 78.214 25.8593 77.9783 25.8747C77.9688 25.8753 77.9594 25.8757 77.95 25.8757Z" fill="#FF7033"/>
<path d="M77.2355 26.2318C77.0745 26.2318 76.9204 26.1405 76.8478 25.9851C76.759 25.7952 74.2965 20.2588 76.0096 17.3832C76.1306 17.1803 76.3932 17.1137 76.5961 17.2347C76.7991 17.3556 76.8657 17.6182 76.7447 17.8211C75.2641 20.3065 77.6032 25.5805 77.623 25.623C77.7228 25.837 77.6303 26.0916 77.4163 26.1915C77.3578 26.2188 77.2961 26.2318 77.2355 26.2318Z" fill="#FF7033"/>
<path d="M80.2245 20.6316C80.9317 20.6316 81.5049 20.0584 81.5049 19.3512C81.5049 18.6441 80.9317 18.0708 80.2245 18.0708C79.5174 18.0708 78.9441 18.6441 78.9441 19.3512C78.9441 20.0584 79.5174 20.6316 80.2245 20.6316Z" fill="#EE8700"/>
<path d="M76.8756 17.9759C77.5828 17.9759 78.156 17.4026 78.156 16.6955C78.156 15.9883 77.5828 15.415 76.8756 15.415C76.1685 15.415 75.5952 15.9883 75.5952 16.6955C75.5952 17.4026 76.1685 17.9759 76.8756 17.9759Z" fill="#EE8700"/>
<path d="M80.4576 27.9012C80.4576 28.7175 80.1222 29.5303 79.4656 30.1105L75.1942 33.8838L74.091 34.8582C72.5651 36.2067 70.5988 36.9511 68.5618 36.9511H57.3094C57.302 36.9511 57.294 36.9505 57.2861 36.9505H55.5018C54.4642 36.9505 53.5772 36.2734 53.2612 35.3391C53.2606 35.3385 53.2612 35.3379 53.2612 35.3379C53.1807 35.0915 53.1414 34.8462 53.1391 34.6083C53.1225 33.3123 54.1824 32.2216 55.5018 32.2216H64.1056C66.154 32.2216 68.1648 31.654 69.9035 30.5708C70.0803 30.4607 70.2571 30.3477 70.4339 30.2308L75.5667 25.697C75.695 25.5835 75.8313 25.4843 75.9728 25.397C75.9974 25.3696 76.0219 25.3428 76.0464 25.3148L76.0732 25.3376C77.2557 24.6742 78.7907 24.8989 79.7228 25.9537C79.9881 26.2532 80.1803 26.5932 80.3018 26.9514C80.4057 27.2594 80.4576 27.5806 80.4576 27.9012Z" fill="#FF7033"/>
<path d="M80.4576 27.901C80.4576 28.7173 80.1222 29.5302 79.4656 30.1103L75.1943 33.8837L74.091 34.858C72.5651 36.2065 70.5989 36.9509 68.5618 36.9509H57.3095C57.3021 36.9509 57.2941 36.9503 57.2861 36.9503H55.5019C54.4642 36.9503 53.5772 36.2732 53.2612 35.3389C53.2607 35.3383 53.2612 35.3377 53.2612 35.3377C53.1808 35.0913 53.1414 34.846 53.1392 34.6081H66.3754C68.5391 34.6081 70.6628 34.0092 72.4996 32.8649C72.6856 32.7485 72.8726 32.6287 73.0597 32.5055L78.4805 27.7173C78.6163 27.5976 78.76 27.492 78.9095 27.4002C78.9358 27.3716 78.9614 27.3431 78.9871 27.314L79.015 27.3379C79.4166 27.1126 79.857 26.9842 80.3019 26.9512C80.4057 27.2593 80.4576 27.5804 80.4576 27.901Z" fill="#FF9811"/>
<path d="M77.3783 29.0202C76.5056 29.0202 75.7957 28.3103 75.7957 27.4376C75.7957 27.2013 75.9872 27.0098 76.2235 27.0098C76.4598 27.0098 76.6513 27.2013 76.6513 27.4376C76.6513 27.8385 76.9774 28.1646 77.3783 28.1646C77.7792 28.1646 78.1053 27.8385 78.1053 27.4376C78.1053 27.2013 78.2969 27.0098 78.5332 27.0098C78.7695 27.0098 78.961 27.2013 78.961 27.4376C78.961 28.3103 78.251 29.0202 77.3783 29.0202Z" fill="#CC3100"/>
</g>
</g>
<defs>
<clipPath id="clip0">
<rect width="89.4843" height="136.791" fill="white" transform="translate(15 35.2085)"/>
</clipPath>
<clipPath id="clip1">
<rect width="28.3661" height="28.3661" fill="white" transform="translate(53.1389 12)"/>
</clipPath>
</defs>
</svg>
