<svg width="188" height="63" viewBox="0 0 188 63" fill="none" xmlns="http://www.w3.org/2000/svg">
<path d="M79.5249 43.4857C67.193 47.8016 50.3873 52.763 24.2627 53.2259C25.7366 57.731 29.4277 59.9998 31.9058 59.9998H76.0946C79.8966 59.9998 81.8856 59.8628 84.6963 57.0529C84.8654 56.8321 85.0936 56.5089 85.3029 55.9381C85.683 54.9024 86.0205 53.2178 86.0205 51.1332V40.6431C85.8103 40.7399 85.5591 40.8568 85.2783 40.9879C83.6783 41.7331 81.1004 42.9342 79.5249 43.4857Z" fill="url(#paint0_linear)"/>
<path d="M12.0872 1.63012L9.39394 10.06C6.84845 10.3469 1.53961 10.9557 0.668352 11.0965C-0.420717 11.2726 0.0749069 12.9872 0.394455 13.6001C0.714002 14.2129 5.32462 14.8127 6.55715 14.9758C7.54319 15.1061 8.99832 15.4386 9.60262 15.5886L24.2627 53.2262C50.3873 52.7633 67.1929 47.8019 79.5249 43.4859C81.3774 42.8376 84.6157 41.291 86.0204 40.6434V32.1157C86.0204 28.2953 82.6881 25.0094 79.0032 25.0094H31.5536C27.6016 25.0094 24.7127 23.2622 22.8215 21.9452C21.3085 20.8916 17.1131 15.9428 15.2045 13.6001C15.2132 10.1751 15.2254 3.15049 15.2045 2.45159C15.1784 1.57796 14.761 0.70434 13.6459 0.613066C12.7538 0.540046 12.2351 1.26068 12.0872 1.63012Z" fill="url(#paint1_linear)"/>
<path d="M47.1962 7.71433C49.5568 11.0144 50.8651 14.2569 49.8191 15.0047C48.7731 15.7524 45.769 13.7223 43.4085 10.4222C41.0479 7.12213 40.0802 3.72384 41.1261 2.97606C42.172 2.22829 44.8356 4.41422 47.1962 7.71433Z" fill="url(#paint2_linear)"/>
<path d="M64.3182 7.71433C61.9576 11.0144 60.6494 14.2569 61.6953 15.0047C62.7413 15.7524 65.7454 13.7223 68.106 10.4222C70.4666 7.12213 71.4343 3.72384 70.3883 2.97606C69.3424 2.22829 66.6788 4.41422 64.3182 7.71433Z" fill="url(#paint3_linear)"/>
<path d="M39.5752 6.87129C39.735 7.35067 39.9481 7.88332 40.2145 8.46922L41.7062 6.97782C41.4398 6.3919 41.2267 5.85926 41.0669 5.37988L39.5752 6.87129ZM40.9603 9.96063C41.2267 10.4401 41.5464 10.8662 41.8661 11.3456L43.3577 9.90737C43.0381 9.42799 42.7185 9.00186 42.5053 8.52247L40.9603 9.96063ZM42.825 12.624C43.1446 13.05 43.5176 13.4761 43.8373 13.849L45.3289 12.4109C45.0093 12.038 44.6364 11.6119 44.3167 11.1858L42.825 12.624ZM45.0093 15.0208C45.4355 15.4469 45.8617 15.7665 46.2879 15.9796L47.7797 14.5414C47.4067 14.2751 46.9805 13.9555 46.501 13.5294L45.0093 15.0208Z" fill="#EB9B15"/>
<path d="M47.7793 14.541L46.2343 15.9792C46.9801 16.4586 47.6727 16.6717 48.0457 16.5118L49.4309 15.127C49.0579 15.2335 48.4718 15.0204 47.7793 14.541ZM45.3286 12.4105L43.8369 13.8486C44.2098 14.2748 44.636 14.6476 45.0089 15.0204L46.5006 13.5824L45.3286 12.4105ZM43.3574 9.85384L41.8656 11.2919C41.9722 11.4517 42.0255 11.5582 42.132 11.7181C42.3452 12.0376 42.6115 12.3572 42.8246 12.6236L44.3164 11.1854C44.1033 10.9191 43.8368 10.5995 43.6237 10.2799C43.5172 10.1201 43.4639 10.0136 43.3574 9.85384ZM40.1608 8.46894C40.3739 8.94832 40.6403 9.42771 40.96 9.96035L42.4516 8.5222C42.132 7.98957 41.8656 7.51019 41.6525 7.0308L40.1608 8.46894ZM40.8534 3.35555L39.4149 4.74043C39.2019 5.16655 39.2552 5.96551 39.5748 6.87101L41.0665 5.43287C40.7468 4.52737 40.6936 3.78167 40.8534 3.35555ZM54.4921 6.92428H56.5165V9.80058H54.4921V6.92428ZM54.4921 14.2748C54.4921 14.541 54.8117 14.7009 55.0781 14.7009H55.8772C56.2501 14.7009 56.5165 14.541 56.5165 14.2748V12.6768H54.4921V14.2748ZM54.4921 2.02393H56.5165V4.90022H54.4921V2.02393Z" fill="#314670"/>
<path d="M54.4922 9.80071H56.5166V12.677H54.4922V9.80071ZM54.4922 4.90035H56.5166V6.9244H54.4922V4.90035ZM55.9306 0H55.1315C54.7586 0 54.4922 0.213058 54.4922 0.479382V2.02406H56.5166V0.532647C56.5166 0.213058 56.2502 0 55.9306 0Z" fill="#EB9B15"/>
<path d="M61.152 51.8799C60.5127 51.8799 59.98 52.4125 59.98 53.0516C59.98 53.6909 60.5127 54.2235 61.152 54.2235C61.7913 54.2235 62.3241 53.6909 62.3241 53.0516C62.3241 52.4125 61.7913 51.8799 61.152 51.8799ZM73.2457 57.5792C65.9469 57.5792 58.4882 56.3541 55.6113 54.4898V55.129C55.6113 55.4486 57.103 55.7682 57.9555 56.0345C62.0577 57.4194 67.4918 58.1651 73.2457 58.1651C77.3479 58.1651 81.2903 57.7922 84.6997 57.0465C84.8597 56.8335 85.0207 56.5686 85.1266 56.3556C81.7706 57.1012 77.6675 57.5792 73.2457 57.5792Z" fill="#314670"/>
<path d="M71.9672 6.87129C71.8073 7.35067 71.5942 7.88332 71.3279 8.46922L69.8361 6.97782C70.1025 6.3919 70.3157 5.85926 70.4754 5.37988L71.9672 6.87129ZM70.582 9.96063C70.3157 10.4401 69.996 10.8662 69.6763 11.3456L68.1846 9.90737C68.5042 9.42799 68.8239 9.00186 69.037 8.52247L70.582 9.96063ZM68.7173 12.624C68.3977 13.05 68.0248 13.4761 67.7051 13.849L66.2134 12.4109C66.533 12.038 66.906 11.6119 67.2257 11.1858L68.7173 12.624ZM66.533 15.0208C66.1069 15.4469 65.6806 15.7665 65.2544 15.9796L63.7627 14.5414C64.1357 14.2751 64.5618 13.9555 65.0413 13.5294L66.533 15.0208Z" fill="#EB9B15"/>
<path d="M63.7625 14.541L65.2542 15.9791C64.5083 16.4585 63.8158 16.6716 63.4428 16.5118L62.0576 15.127C62.4839 15.2335 63.0699 15.0204 63.7625 14.541ZM66.1599 12.4104L67.6516 13.8486C67.2787 14.2747 66.8525 14.6476 66.4795 15.0204L64.9878 13.5823C65.414 13.2094 65.787 12.8366 66.1599 12.4104ZM68.1843 9.85376L69.6761 11.2919C69.5695 11.4517 69.5163 11.5582 69.4097 11.718C69.1966 12.0376 68.9303 12.3572 68.7171 12.6235L67.2254 11.1854C67.4385 10.919 67.7049 10.5994 67.918 10.2799C67.9713 10.1201 68.0778 10.0135 68.1843 9.85376ZM71.3276 8.46887C71.1146 8.94825 70.8482 9.42764 70.5285 9.96028L69.0368 8.52212C69.3564 7.9895 69.6228 7.51011 69.8359 7.03073L71.3276 8.46887ZM70.6883 3.35547L72.1268 4.74035C72.3398 5.16647 72.2866 5.96544 71.967 6.87094L70.4752 5.43279C70.7416 4.5273 70.8482 3.78159 70.6883 3.35547Z" fill="#314670"/>
<path d="M113.36 31.2129C112.347 31.2129 111.495 32.0119 111.495 33.0772V46.8728C111.495 47.8848 112.295 48.6838 113.307 48.737H122.044C122.31 48.737 122.523 48.5239 122.523 48.2576V46.3934C122.523 46.127 122.31 45.9672 122.097 45.9672H114.692C114.479 45.9672 114.266 45.7542 114.266 45.5411V41.6528C114.266 41.4398 114.425 41.2267 114.692 41.2267H120.286C120.552 41.2267 120.712 41.0136 120.712 40.8006V38.9363C120.712 38.67 120.499 38.5102 120.286 38.5102H114.692C114.479 38.5102 114.266 38.2972 114.266 38.0841V34.4621C114.266 34.249 114.479 34.036 114.692 34.036H122.097C122.364 34.036 122.576 33.8229 122.576 33.5566V31.6923C122.576 31.426 122.364 31.2662 122.15 31.2662C119.22 31.2129 116.237 31.2662 113.36 31.2129ZM99.1357 31.2129C102.012 31.2662 104.942 31.2129 107.872 31.2129C108.139 31.2129 108.298 31.426 108.298 31.639V33.5566C108.298 33.8229 108.086 34.036 107.872 34.036H100.467C100.254 34.036 100.095 34.1957 100.095 34.4621V38.0841C100.095 38.2972 100.254 38.5102 100.467 38.5102H103.93C106.753 38.5102 109.045 40.8539 109.045 43.6768C109.045 46.4466 106.913 48.6838 104.197 48.7903H99.0289C98.5667 48.763 98.1333 48.5604 97.8164 48.2236C97.4995 47.8869 97.323 47.4417 97.3238 46.9793V33.1305C97.2704 32.0652 98.0701 31.2129 99.1357 31.2129ZM100.521 45.9672H103.823C105.102 45.9672 106.168 44.902 106.168 43.6236C106.168 42.3453 105.102 41.28 103.823 41.28H100.521C100.307 41.28 100.095 41.4398 100.095 41.7061V45.5944C100.095 45.7542 100.254 45.9672 100.521 45.9672ZM137.281 48.6838H135.416C135.149 48.6838 134.99 48.4707 134.99 48.2576V41.5995C134.99 41.3865 134.777 41.1734 134.564 41.1734H128.224C128.011 41.1734 127.798 41.3865 127.798 41.5995V48.2576C127.798 48.5239 127.584 48.6838 127.372 48.6838H125.506C125.24 48.6838 125.08 48.4707 125.08 48.2576V31.6923C125.08 31.426 125.294 31.2662 125.506 31.2662H127.372C127.638 31.2662 127.798 31.4793 127.798 31.6923V38.0308C127.798 38.2438 128.011 38.4569 128.224 38.4569H134.564C134.777 38.4569 134.99 38.2438 134.99 38.0308V31.6923C134.99 31.426 135.203 31.2662 135.416 31.2662H137.281C137.547 31.2662 137.707 31.4793 137.707 31.6923V48.2576C137.707 48.4707 137.547 48.6838 137.281 48.6838ZM169.3 32.0652C169.619 31.5858 170.152 31.2662 170.738 31.2129H171.377C171.59 31.2129 171.803 31.426 171.803 31.639V48.2044C171.803 48.4707 171.59 48.6305 171.324 48.6305H169.406C169.139 48.6305 168.927 48.4174 168.927 48.1511V37.1253L161.468 47.7783C161.148 48.2576 160.669 48.5772 160.083 48.5772H159.443C159.23 48.5772 159.017 48.3642 159.017 48.1511V31.5858C159.017 31.3194 159.23 31.1597 159.496 31.1597H161.362C161.628 31.1597 161.841 31.3728 161.841 31.639V42.6648L169.3 32.0652ZM146.977 46.926C147.03 47.8848 147.723 48.6305 148.682 48.737H149.321C149.534 48.737 149.748 48.5239 149.748 48.3109V43.1974H151.612C154.435 43.1974 156.727 40.5342 156.727 37.2318C156.727 33.9295 154.435 31.2662 151.612 31.2662H145.166C142.342 31.2662 140.105 33.9295 140.105 37.2318C140.105 40.5342 142.395 43.1974 145.166 43.1974H146.977V46.926ZM149.748 40.3212V33.9827H151.612C152.89 34.036 153.902 35.4209 153.902 37.1786C153.902 38.8831 152.89 40.3212 151.612 40.3745C151.612 40.3212 150.76 40.3212 149.748 40.3212ZM146.924 33.9827V40.3212H145.166C143.887 40.3212 142.821 38.8831 142.821 37.1253C142.821 35.3676 143.887 33.9295 145.166 33.9295C145.166 33.9827 145.911 33.9827 146.924 33.9827ZM187.2 48.6838H185.335C185.069 48.6838 184.909 48.4707 184.909 48.2576V41.5995C184.909 41.3865 184.697 41.1734 184.483 41.1734H178.144C177.93 41.1734 177.717 41.3865 177.717 41.5995V48.2576C177.717 48.5239 177.504 48.6838 177.291 48.6838H175.426C175.16 48.6838 175 48.4707 175 48.2576V31.6923C175 31.426 175.213 31.2662 175.426 31.2662H177.291C177.558 31.2662 177.717 31.4793 177.717 31.6923V38.0308C177.717 38.2438 177.93 38.4569 178.144 38.4569H184.483C184.697 38.4569 184.909 38.2438 184.909 38.0308V31.6923C184.909 31.426 185.123 31.2662 185.335 31.2662H187.2C187.466 31.2662 187.627 31.4793 187.627 31.6923V48.2576C187.68 48.4707 187.466 48.6838 187.2 48.6838Z" fill="#314670"/>
<path d="M99.6205 59.9822C98.4736 59.9822 98.0097 58.8019 98.0097 57.5444C98.0097 56.3971 98.5064 55.1506 99.6205 55.1506C100.658 55.1506 101.243 56.2757 101.243 57.5444C101.243 58.7798 100.757 59.9822 99.6205 59.9822ZM101.243 52.2715V55.5477C100.934 55.0071 100.305 54.5549 99.5219 54.5549C98.0212 54.5549 97.3037 55.9559 97.3037 57.5444C97.3037 59.188 97.9654 60.5779 99.5219 60.5779C100.271 60.5779 100.857 60.258 101.243 59.5741V62.6738H101.905V59.5962C102.291 60.28 102.876 60.5779 103.626 60.5779C105.182 60.5779 105.844 59.2101 105.844 57.5664C105.844 55.9779 105.127 54.5549 103.626 54.5549C102.843 54.5549 102.214 55.0292 101.905 55.5697V52.2715H101.243ZM103.527 59.9822C102.39 59.9822 101.905 58.7798 101.905 57.5444C101.905 56.2757 102.49 55.1506 103.527 55.1506C104.641 55.1506 105.138 56.3971 105.138 57.5444C105.138 58.8019 104.674 59.9822 103.527 59.9822Z" fill="#314670"/>
<path d="M107.942 54.7095H107.28V60.4237H108.019L111.274 55.592V60.4237H111.937V54.7095H111.209L107.942 59.5412V54.7095Z" fill="#314670"/>
<path d="M114.335 54.7095H113.673V60.4237H114.335V57.6549H117.513V60.4237H118.175V54.7095H117.513V57.1033H114.335V54.7095Z" fill="#314670"/>
<path d="M123.665 57.4228V58.3163C123.665 59.4745 122.629 59.982 121.58 59.982C120.951 59.982 120.345 59.651 120.345 58.9561C120.345 58.1839 120.951 57.8088 121.955 57.7426C122.772 57.6875 123.379 57.5772 123.665 57.4228ZM120.576 56.4409C120.698 55.4482 121.327 55.1503 122.243 55.1503C123.269 55.1503 123.665 55.6357 123.665 56.3086C123.665 56.8271 123.468 56.9705 122.904 57.0477L121.635 57.2132C120.3 57.3897 119.639 57.9743 119.639 58.934C119.639 60.0371 120.543 60.5776 121.547 60.5776C122.375 60.5776 123.136 60.2357 123.644 59.629H123.665C123.732 60.335 123.963 60.5115 124.504 60.5115C124.626 60.5115 124.857 60.4563 125.023 60.4011V59.8827C124.857 59.9378 124.714 59.982 124.626 59.982C124.394 59.982 124.328 59.8055 124.328 59.4415V56.3306C124.328 55.0069 123.412 54.5547 122.253 54.5547C121.006 54.5547 120.002 55.0952 119.903 56.4409H120.576Z" fill="#314670"/>
<path d="M126.862 54.7095H126.2V60.4237H126.862V57.6549H130.04V60.4237H130.701V54.7095H130.04V57.1033H126.862V54.7095Z" fill="#314670"/>
<path d="M137.163 56.5071C136.965 55.1834 136.104 54.5547 134.791 54.5547C133.08 54.5547 132.165 55.9887 132.165 57.5772C132.165 59.265 132.97 60.5776 134.791 60.5776C136.225 60.5776 137.02 59.7172 137.252 58.4486H136.546C136.391 59.3973 135.773 59.982 134.791 59.982C133.423 59.982 132.871 58.7796 132.871 57.5772C132.871 56.3858 133.434 55.1503 134.791 55.1503C135.674 55.1503 136.258 55.6578 136.491 56.5071H137.163Z" fill="#314670"/>
<defs>
<linearGradient id="paint0_linear" x1="24.2919" y1="50.3355" x2="86.0393" y2="50.3355" gradientUnits="userSpaceOnUse">
<stop stop-color="#B5B5B5"/>
<stop offset="0.604" stop-color="#E5E5E5"/>
<stop offset="1" stop-color="white"/>
</linearGradient>
<linearGradient id="paint1_linear" x1="0.00433501" y1="26.9313" x2="86.0261" y2="26.9313" gradientUnits="userSpaceOnUse">
<stop stop-color="#697CB9"/>
<stop offset="1" stop-color="#8ABFEA"/>
</linearGradient>
<linearGradient id="paint2_linear" x1="41.2426" y1="8.97585" x2="49.685" y2="8.97585" gradientUnits="userSpaceOnUse">
<stop stop-color="#F9E734"/>
<stop offset="0.5" stop-color="#F9E734"/>
<stop offset="0.849" stop-color="#F3C233"/>
<stop offset="1" stop-color="#F0B132"/>
</linearGradient>
<linearGradient id="paint3_linear" x1="70.3094" y1="8.97626" x2="61.8672" y2="8.97626" gradientUnits="userSpaceOnUse">
<stop stop-color="#F9E734"/>
<stop offset="0.5" stop-color="#F9E734"/>
<stop offset="0.849" stop-color="#F3C233"/>
<stop offset="1" stop-color="#F0B132"/>
</linearGradient>
</defs>
</svg>
