<svg width="104" height="72" viewBox="0 0 104 72" fill="none" xmlns="http://www.w3.org/2000/svg">
<path d="M95.4299 52.1831C80.6317 57.3622 60.4648 63.3159 29.1152 63.8713C30.8839 69.2775 35.3132 72 38.287 72H91.3136C95.876 72 98.2628 71.8356 101.636 68.4638C101.839 68.1988 102.112 67.811 102.364 67.126C102.82 65.8832 103.225 63.8616 103.225 61.3601V48.772C102.972 48.8881 102.671 49.0284 102.334 49.1857C100.414 50.08 97.3205 51.5213 95.4299 52.1831Z" fill="url(#paint0_linear)"/>
<path d="M14.5047 1.95615L11.2727 12.072C8.21815 12.4163 1.84753 13.1469 0.802023 13.3158C-0.504861 13.5271 0.0898884 15.5847 0.473346 16.3202C0.856803 17.0555 6.38955 17.7753 7.86859 17.971C9.05184 18.1274 10.798 18.5264 11.5232 18.7064L29.1153 63.8715C60.4648 63.316 80.6316 57.3623 95.43 52.1831C97.653 51.4052 101.539 49.5493 103.225 48.7721V38.5389C103.225 33.9544 99.2258 30.0113 94.8039 30.0113H37.8644C33.122 30.0113 29.6553 27.9147 27.3858 26.3343C25.5702 25.07 20.5357 19.1314 18.2454 16.3202C18.2559 12.2101 18.2705 3.78059 18.2454 2.94191C18.2141 1.89356 17.7132 0.845208 16.3751 0.735679C15.3046 0.648055 14.6821 1.51282 14.5047 1.95615Z" fill="url(#paint1_linear)"/>
<path d="M56.6356 9.2573C59.4683 13.2174 61.0383 17.1084 59.7831 18.0058C58.5279 18.903 54.923 16.4669 52.0904 12.5068C49.2576 8.54666 48.0964 4.46871 49.3515 3.57137C50.6065 2.67404 53.8029 5.29716 56.6356 9.2573Z" fill="url(#paint2_linear)"/>
<path d="M77.1818 9.2573C74.3491 13.2174 72.7792 17.1084 74.0343 18.0058C75.2895 18.903 78.8944 16.4669 81.7272 12.5068C84.5599 8.54666 85.7211 4.46871 84.4659 3.57137C83.2108 2.67404 80.0145 5.29716 77.1818 9.2573Z" fill="url(#paint3_linear)"/>
<path d="M47.4902 8.24526C47.682 8.82052 47.9377 9.4597 48.2574 10.1628L50.0474 8.3731C49.7278 7.66999 49.472 7.03082 49.2803 6.45557L47.4902 8.24526ZM49.1524 11.9525C49.472 12.5278 49.8557 13.0391 50.2393 13.6144L52.0292 11.8886C51.6457 11.3133 51.2622 10.8019 51.0064 10.2267L49.1524 11.9525ZM51.39 15.1485C51.7735 15.6597 52.2211 16.171 52.6048 16.6185L54.3947 14.8927C54.0112 14.4453 53.5637 13.9339 53.18 13.4226L51.39 15.1485ZM54.0112 18.0246C54.5226 18.5359 55.034 18.9195 55.5455 19.1752L57.3356 17.4493C56.888 17.1298 56.3766 16.7463 55.8012 16.2349L54.0112 18.0246Z" fill="#EB9B15"/>
<path d="M57.3352 17.4498L55.4811 19.1756C56.3761 19.7509 57.2072 20.0066 57.6548 19.8147L59.3171 18.153C58.8695 18.2808 58.1662 18.025 57.3352 17.4498ZM54.3943 14.8932L52.6043 16.6189C53.0517 17.1303 53.5632 17.5777 54.0107 18.025L55.8007 16.2994L54.3943 14.8932ZM52.0289 11.8251L50.2387 13.5508C50.3666 13.7426 50.4306 13.8704 50.5584 14.0623C50.8142 14.4457 51.1338 14.8292 51.3895 15.1489L53.1797 13.423C52.9239 13.1035 52.6041 12.72 52.3484 12.3364C52.2206 12.1447 52.1567 12.0169 52.0289 11.8251ZM48.1929 10.1632C48.4487 10.7385 48.7683 11.3137 49.152 11.9529L50.9419 10.2271C50.5584 9.58797 50.2387 9.01272 49.983 8.43745L48.1929 10.1632ZM49.0241 4.02714L47.2979 5.689C47.0423 6.20035 47.1062 7.1591 47.4897 8.2457L49.2798 6.51993C48.8961 5.43333 48.8323 4.53849 49.0241 4.02714ZM65.3905 8.30962H67.8198V11.7612H65.3905V8.30962ZM65.3905 17.1303C65.3905 17.4498 65.774 17.6416 66.0937 17.6416H67.0526C67.5001 17.6416 67.8198 17.4498 67.8198 17.1303V15.2127H65.3905V17.1303ZM65.3905 2.4292H67.8198V5.88075H65.3905V2.4292Z" fill="black"/>
<path d="M65.3906 11.7609H67.8199V15.2124H65.3906V11.7609ZM65.3906 5.88043H67.8199V8.30929H65.3906V5.88043ZM67.1167 0H66.1578C65.7103 0 65.3906 0.25567 65.3906 0.575259V2.42887H67.8199V0.639177C67.8199 0.25567 67.5002 0 67.1167 0Z" fill="#EB9B15"/>
<path d="M86.3605 8.24526C86.1687 8.82052 85.913 9.4597 85.5934 10.1628L83.8032 8.3731C84.1229 7.66999 84.3787 7.03082 84.5704 6.45557L86.3605 8.24526ZM84.6983 11.9525C84.3787 12.5278 83.9951 13.0391 83.6115 13.6144L81.8214 11.8886C82.2049 11.3133 82.5886 10.8019 82.8443 10.2267L84.6983 11.9525ZM82.4607 15.1485C82.0771 15.6597 81.6297 16.171 81.246 16.6185L79.456 14.8927C79.8395 14.4453 80.2871 13.9339 80.6707 13.4226L82.4607 15.1485ZM79.8395 18.0246C79.3282 18.5359 78.8166 18.9195 78.3052 19.1752L76.5151 17.4493C76.9627 17.1298 77.4741 16.7463 78.0495 16.2349L79.8395 18.0246Z" fill="#EB9B15"/>
<path d="M76.5151 17.4495L78.3052 19.1753C77.4101 19.7505 76.5791 20.0063 76.1315 19.8145L74.4692 18.1527C74.9808 18.2805 75.684 18.0248 76.5151 17.4495ZM79.392 14.8928L81.1821 16.6186C80.7346 17.13 80.2231 17.5774 79.7755 18.0248L77.9855 16.2991C78.4969 15.8516 78.9445 15.4042 79.392 14.8928ZM81.8213 11.8248L83.6115 13.5506C83.4835 13.7424 83.4197 13.8702 83.2918 14.0619C83.036 14.4454 82.7165 14.829 82.4607 15.1485L80.6706 13.4228C80.9263 13.1031 81.246 12.7196 81.5017 12.3362C81.5657 12.1444 81.6935 12.0165 81.8213 11.8248ZM85.5933 10.1629C85.3377 10.7382 85.018 11.3135 84.6343 11.9526L82.8443 10.2268C83.2278 9.5877 83.5475 9.01243 83.8032 8.43717L85.5933 10.1629ZM84.8261 4.02686L86.5523 5.68871C86.8079 6.20006 86.7441 7.15882 86.3605 8.24542L84.5704 6.51964C84.89 5.43305 85.018 4.5382 84.8261 4.02686Z" fill="black"/>
<path d="M73.3827 62.2559C72.6156 62.2559 71.9763 62.895 71.9763 63.6619C71.9763 64.4291 72.6156 65.0682 73.3827 65.0682C74.1499 65.0682 74.7893 64.4291 74.7893 63.6619C74.7893 62.895 74.1499 62.2559 73.3827 62.2559ZM87.8952 69.095C79.1366 69.095 70.1862 67.6249 66.7339 65.3877V66.1548C66.7339 66.5383 68.5239 66.9218 69.5469 67.2414C74.4696 68.9033 80.9905 69.7981 87.8952 69.7981C92.8178 69.7981 97.5487 69.3506 101.64 68.4558C101.832 68.2002 102.025 67.8823 102.152 67.6267C98.1251 68.5214 93.2013 69.095 87.8952 69.095Z" fill="black"/>
<defs>
<linearGradient id="paint0_linear" x1="29.1503" y1="60.4029" x2="103.247" y2="60.4029" gradientUnits="userSpaceOnUse">
<stop stop-color="#B5B5B5"/>
<stop offset="0.604" stop-color="#E5E5E5"/>
<stop offset="1" stop-color="white"/>
</linearGradient>
<linearGradient id="paint1_linear" x1="0.00520202" y1="32.3176" x2="103.231" y2="32.3176" gradientUnits="userSpaceOnUse">
<stop stop-color="#697CB9"/>
<stop offset="1" stop-color="#8ABFEA"/>
</linearGradient>
<linearGradient id="paint2_linear" x1="49.4913" y1="10.7711" x2="59.6222" y2="10.7711" gradientUnits="userSpaceOnUse">
<stop stop-color="#F9E734"/>
<stop offset="0.5" stop-color="#F9E734"/>
<stop offset="0.849" stop-color="#F3C233"/>
<stop offset="1" stop-color="#F0B132"/>
</linearGradient>
<linearGradient id="paint3_linear" x1="84.3712" y1="10.7716" x2="74.2406" y2="10.7716" gradientUnits="userSpaceOnUse">
<stop stop-color="#F9E734"/>
<stop offset="0.5" stop-color="#F9E734"/>
<stop offset="0.849" stop-color="#F3C233"/>
<stop offset="1" stop-color="#F0B132"/>
</linearGradient>
</defs>
</svg>
