<svg width="160" height="22" viewBox="0 0 160 22" fill="none" xmlns="http://www.w3.org/2000/svg">
<path d="M0 20.8534H10.3511C15.2625 20.8534 18.4953 18.9789 18.4953 15.23V15.1714C18.4953 12.4183 16.9411 11.0417 14.4232 10.1338C15.9774 9.31372 17.283 8.02503 17.283 5.71124V5.65266C17.283 4.24682 16.7856 3.10457 15.7909 2.16734C14.5476 0.995806 12.5892 0.35146 10.1025 0.35146H0V20.8534ZM4.66268 8.64009V4.3054H9.38752C11.408 4.3054 12.5271 5.0669 12.5271 6.41416V6.47274C12.5271 7.99574 11.1904 8.64009 9.07668 8.64009H4.66268ZM4.66268 16.8994V12.389H10.1957C12.6514 12.389 13.7394 13.2384 13.7394 14.6149V14.6735C13.7394 16.1965 12.4649 16.8994 10.3511 16.8994H4.66268Z" fill="#314670"/>
<path d="M22.4331 20.8534H27.2201V14.2928H30.9813L35.644 20.8534H41.2392L35.9237 13.5313C38.6903 12.5647 40.5864 10.4853 40.5864 7.17566V7.11709C40.5864 5.18405 39.9336 3.57319 38.7213 2.43094C37.2915 1.08367 35.1466 0.35146 32.3801 0.35146H22.4331V20.8534ZM27.2201 10.3095V4.42255H31.976C34.3073 4.42255 35.7372 5.41836 35.7372 7.35139V7.40997C35.7372 9.13799 34.4006 10.3095 32.0693 10.3095H27.2201Z" fill="#314670"/>
<path d="M55.4652 21.2048C62.1795 21.2048 67.0597 16.4308 67.0597 10.6024V10.5438C67.0597 4.71544 62.2416 0 55.5274 0C48.8131 0 43.9329 4.77401 43.9329 10.6024V10.661C43.9329 16.4894 48.751 21.2048 55.4652 21.2048ZM55.5274 17.0459C51.6729 17.0459 48.9375 14.117 48.9375 10.6024V10.5438C48.9375 7.02922 51.6107 4.15896 55.4652 4.15896C59.3197 4.15896 62.0551 7.0878 62.0551 10.6024V10.661C62.0551 14.1756 59.3819 17.0459 55.5274 17.0459Z" fill="#314670"/>
<path d="M71.3062 20.8534H79.7923C86.6308 20.8534 91.3557 16.3722 91.3557 10.6024V10.5438C91.3557 4.77401 86.6308 0.35146 79.7923 0.35146H71.3062V20.8534ZM76.0932 16.7823V4.42255H79.7923C83.7089 4.42255 86.3511 6.97064 86.3511 10.6024V10.661C86.3511 14.2928 83.7089 16.7823 79.7923 16.7823H76.0932Z" fill="#314670"/>
<path d="M104.698 21.1755C110.542 21.1755 114.241 18.1295 114.241 11.9204V0.35146H109.454V12.0961C109.454 15.3471 107.682 17.0166 104.76 17.0166C101.838 17.0166 100.066 15.2886 100.066 11.9497V0.35146H95.2794V12.0668C95.2794 18.1002 98.8541 21.1755 104.698 21.1755Z" fill="#314670"/>
<path d="M119.117 20.8534H127.603C134.441 20.8534 139.166 16.3722 139.166 10.6024V10.5438C139.166 4.77401 134.441 0.35146 127.603 0.35146H119.117V20.8534ZM123.904 16.7823V4.42255H127.603C131.52 4.42255 134.162 6.97064 134.162 10.6024V10.661C134.162 14.2928 131.52 16.7823 127.603 16.7823H123.904Z" fill="#314670"/>
<path d="M143.432 20.8534H160V16.8408H148.188V12.5354H158.446V8.52293H148.188V4.36397H159.845V0.35146H143.432V20.8534Z" fill="#314670"/>
</svg>
