<svg width="162" height="22" viewBox="0 0 162 22" fill="none" xmlns="http://www.w3.org/2000/svg">
<path d="M0 21.148H10.4805C15.4533 21.148 18.7265 19.2471 18.7265 15.4452V15.3858C18.7265 12.5938 17.1528 11.1977 14.6035 10.277C16.1772 9.44531 17.499 8.13841 17.499 5.79194V5.73253C17.499 4.30682 16.9955 3.14844 15.9883 2.19797C14.7294 1.00988 12.7466 0.356426 10.2287 0.356426H0V21.148ZM4.72096 8.76216V4.36623H9.50487C11.5506 4.36623 12.6836 5.13849 12.6836 6.50479V6.5642C12.6836 8.10871 11.3303 8.76216 9.19014 8.76216H4.72096ZM4.72096 17.1382V12.564H10.3232C12.8095 12.564 13.9111 13.4254 13.9111 14.8214V14.8808C13.9111 16.4253 12.6207 17.1382 10.4805 17.1382H4.72096Z" fill="white"/>
<path d="M22.7135 21.148H27.5603V14.4947H31.3686L36.0895 21.148H41.7547L36.3728 13.7224C39.1739 12.7423 41.0938 10.6334 41.0938 7.27705V7.21764C41.0938 5.2573 40.4328 3.62367 39.2054 2.46529C37.7576 1.09898 35.586 0.356426 32.7849 0.356426H22.7135V21.148ZM27.5603 10.4552V4.48504H32.3757C34.7362 4.48504 36.1839 5.49492 36.1839 7.45526V7.51467C36.1839 9.2671 34.8306 10.4552 32.4701 10.4552H27.5603Z" fill="white"/>
<path d="M56.1585 21.5044C62.9567 21.5044 67.898 16.663 67.898 10.7522V10.6928C67.898 4.78206 63.0197 0 56.2215 0C49.4233 0 44.482 4.84146 44.482 10.7522V10.8116C44.482 16.7224 49.3603 21.5044 56.1585 21.5044ZM56.2215 17.2867C52.3188 17.2867 49.5492 14.3165 49.5492 10.7522V10.6928C49.5492 7.12854 52.2559 4.21772 56.1585 4.21772C60.0612 4.21772 62.8308 7.18794 62.8308 10.7522V10.8116C62.8308 14.3759 60.1241 17.2867 56.2215 17.2867Z" fill="white"/>
<path d="M72.1975 21.148H80.7896C87.7137 21.148 92.4976 16.6036 92.4976 10.7522V10.6928C92.4976 4.84146 87.7137 0.356426 80.7896 0.356426H72.1975V21.148ZM77.0443 17.0194V4.48504H80.7896C84.7553 4.48504 87.4305 7.06913 87.4305 10.7522V10.8116C87.4305 14.4947 84.7553 17.0194 80.7896 17.0194H77.0443Z" fill="white"/>
<path d="M106.007 21.4747C111.924 21.4747 115.669 18.3857 115.669 12.0888V0.356426H110.822V12.267C110.822 15.564 109.028 17.257 106.07 17.257C103.111 17.257 101.317 15.5046 101.317 12.1185V0.356426H96.4704V12.2373C96.4704 18.356 100.09 21.4747 106.007 21.4747Z" fill="white"/>
<path d="M120.606 21.148H129.198C136.122 21.148 140.906 16.6036 140.906 10.7522V10.6928C140.906 4.84146 136.122 0.356426 129.198 0.356426H120.606V21.148ZM125.453 17.0194V4.48504H129.198C133.164 4.48504 135.839 7.06913 135.839 10.7522V10.8116C135.839 14.4947 133.164 17.0194 129.198 17.0194H125.453Z" fill="white"/>
<path d="M145.225 21.148H162V17.0788H150.04V12.7126H160.426V8.64335H150.04V4.42563H161.843V0.356426H145.225V21.148Z" fill="white"/>
</svg>
