<svg width="40" height="39" viewBox="0 0 40 39" fill="none" xmlns="http://www.w3.org/2000/svg">
<rect x="0.838817" y="0.694042" width="37.8156" height="37.7949" rx="18.8974" stroke="white" stroke-width="0.804587"/>
<path d="M25.4912 15.7072C25.4156 15.6212 25.3078 15.5721 25.1935 15.5705H22.1602V14.4366C22.1602 14.2115 22.2085 13.9542 22.5706 13.9542H24.9843C25.0913 13.959 25.1951 13.9147 25.2659 13.8335C25.3367 13.7604 25.377 13.6622 25.3786 13.5601V10.3435C25.3786 10.1215 25.1984 9.94141 24.9763 9.94141H21.4924C17.6304 9.94141 17.3327 13.2385 17.3327 14.2436V15.5705H15.3212C15.0992 15.5705 14.9189 15.7506 14.9189 15.9726V19.1892C14.9189 19.4112 15.0992 19.5913 15.3212 19.5913H17.3327V28.8391C17.3327 29.0611 17.5129 29.2412 17.735 29.2412H21.7579C21.98 29.2412 22.1602 29.0611 22.1602 28.8391V19.5913H24.8556C25.0632 19.5921 25.237 19.4353 25.2579 19.2294L25.5958 16.0128C25.6055 15.901 25.5677 15.79 25.4912 15.7072Z" fill="white"/>
</svg>
