<svg width="40" height="39" viewBox="0 0 40 39" fill="none" xmlns="http://www.w3.org/2000/svg">
<rect x="1.06733" y="0.694042" width="37.8156" height="37.7949" rx="18.8974" stroke="white" stroke-width="0.804587"/>
<path d="M29.5737 15.4741C29.7443 15.3318 29.7676 15.0785 29.626 14.908C29.5713 14.8421 29.4964 14.7954 29.4128 14.7745L28.7771 14.6137C28.5615 14.5598 28.4304 14.3411 28.4843 14.1264C28.4907 14.0998 28.5004 14.0749 28.5116 14.0508L28.8656 13.3351C28.9622 13.1348 28.8777 12.8944 28.6782 12.7979C28.5913 12.7561 28.4923 12.7472 28.399 12.7722L26.7898 13.2225C26.6683 13.2579 26.5372 13.2338 26.4358 13.1582C25.7398 12.6363 24.8926 12.354 24.022 12.354C21.8005 12.354 19.9991 14.1545 19.9991 16.3748V16.6643C19.9999 16.7664 19.9234 16.8533 19.8221 16.8653C17.5612 17.1307 15.3968 15.9808 13.0635 13.2949C12.9605 13.1807 12.802 13.134 12.6532 13.1742C12.5196 13.2354 12.4303 13.3648 12.4198 13.512C12.0972 14.8348 12.2275 16.2276 12.79 17.4685C12.8398 17.5674 12.8004 17.6888 12.7014 17.7386C12.6636 17.7571 12.6218 17.7644 12.5808 17.7579L11.6796 17.581C11.46 17.5457 11.254 17.6952 11.2186 17.914C11.2114 17.9614 11.2122 18.0088 11.221 18.0555C11.3618 19.306 12.0634 20.4237 13.1279 21.0952C13.2277 21.1435 13.2695 21.2641 13.2212 21.3638C13.2011 21.4048 13.1689 21.4378 13.1279 21.4571L12.7014 21.626C12.4955 21.7088 12.3949 21.9428 12.4778 22.1487C12.4818 22.1599 12.4866 22.1704 12.4923 22.1808C12.971 23.2278 13.9333 23.9733 15.0669 24.1751C15.1715 24.2129 15.2254 24.3287 15.1876 24.4325C15.1675 24.4888 15.1233 24.5322 15.0669 24.5531C13.9727 25.005 12.7988 25.2326 11.6153 25.2205C11.3932 25.1763 11.1768 25.3203 11.1325 25.5422C11.0882 25.7642 11.2323 25.9805 11.4543 26.0247C13.5044 26.9961 15.7356 27.5253 18.0037 27.5767C19.9983 27.6073 21.9582 27.0476 23.6358 25.9684C26.439 24.0979 28.1182 20.9497 28.1093 17.581V16.8814C28.1101 16.7632 28.1632 16.6514 28.2542 16.5758L29.5737 15.4741Z" fill="white"/>
</svg>
