<svg width="39" height="39" viewBox="0 0 39 39" fill="none" xmlns="http://www.w3.org/2000/svg">
<rect x="0.550731" y="0.694042" width="37.8156" height="37.7949" rx="18.8974" stroke="white" stroke-width="0.804587"/>
<path d="M28.6553 15.5411C28.7934 15.0699 28.6553 14.7231 27.9906 14.7231H25.7912C25.2311 14.7231 24.9735 15.0209 24.8353 15.3526C24.8353 15.3526 23.7151 18.1081 22.1318 19.8949C21.6203 20.4113 21.385 20.5771 21.1049 20.5771C20.9668 20.5771 20.7539 20.4113 20.7539 19.9401V15.5411C20.7539 14.9757 20.5971 14.7231 20.1341 14.7231H16.6763C16.3253 14.7231 16.1162 14.987 16.1162 15.232C16.1162 15.7673 16.9078 15.8917 16.99 17.3995V20.6714C16.99 21.3876 16.863 21.5195 16.583 21.5195C15.8361 21.5195 14.0214 18.7527 12.946 15.5864C12.7294 14.9719 12.5165 14.7231 11.9527 14.7231H9.75331C9.12598 14.7231 8.99902 15.0209 8.99902 15.3526C8.99902 15.9407 9.74584 18.862 12.4755 22.722C14.294 25.3568 16.8556 26.7855 19.1856 26.7855C20.5859 26.7855 20.7577 26.4688 20.7577 25.9223C20.7577 23.4043 20.6307 23.1668 21.3327 23.1668C21.6576 23.1668 22.2177 23.3326 23.5246 24.6029C25.0183 26.1107 25.2647 26.7855 26.1012 26.7855H28.3005C28.9279 26.7855 29.2453 26.4688 29.0623 25.8431C28.6441 24.5276 25.8174 21.8211 25.6904 21.6401C25.3655 21.218 25.4589 21.0295 25.6904 20.6525C25.6941 20.6488 28.379 16.8341 28.6553 15.5411Z" fill="white"/>
</svg>
