<svg width="7" height="12" viewBox="0 0 7 12" fill="none" xmlns="http://www.w3.org/2000/svg">
<path d="M0.993028 0.687188C0.911257 0.770904 0.865479 0.883287 0.865479 1.00031C0.865479 1.11734 0.911257 1.22972 0.993028 1.31344L5.56147 6L0.993028 10.6856C0.911257 10.7693 0.865479 10.8817 0.865479 10.9988C0.865479 11.1158 0.911257 11.2282 0.993028 11.3119C1.03277 11.3527 1.0803 11.3851 1.13279 11.4073C1.18528 11.4295 1.24168 11.4409 1.29865 11.4409C1.35563 11.4409 1.41203 11.4295 1.46452 11.4073C1.51701 11.3851 1.56453 11.3527 1.60428 11.3119L6.4624 6.32719C6.54773 6.23965 6.59548 6.12225 6.59548 6C6.59548 5.87776 6.54773 5.76035 6.4624 5.67282L1.60428 0.688125C1.56453 0.647303 1.51701 0.614857 1.46452 0.592703C1.41203 0.570549 1.35563 0.559134 1.29865 0.559134C1.24168 0.559134 1.18528 0.570549 1.13279 0.592703C1.0803 0.614857 1.03277 0.647303 0.993028 0.688125V0.687188Z" fill="black"/>
</svg>
